<?xml version="1.0" encoding="UTF-8"?>
<svg xmlns="http://www.w3.org/2000/svg" xmlns:xlink="http://www.w3.org/1999/xlink" width="16px" height="16px" viewBox="0 0 16 16" version="1.1">
<g id="surface1">
<path style=" stroke:none;fill-rule:nonzero;fill:rgb(100%,100%,100%);fill-opacity:1;" d="M 0.613281 0 L 15.386719 0 C 15.726562 0 16 0.273438 16 0.613281 L 16 15.386719 C 16 15.726562 15.726562 16 15.386719 16 L 0.613281 16 C 0.273438 16 0 15.726562 0 15.386719 L 0 0.613281 C 0 0.273438 0.273438 0 0.613281 0 Z M 0.613281 0 "/>
<path style=" stroke:none;fill-rule:nonzero;fill:rgb(78.431373%,84.705882%,32.54902%);fill-opacity:1;" d="M 6.714844 6.394531 L 10.457031 10.140625 C 10.65625 10.339844 10.65625 10.65625 10.457031 10.855469 L 6.714844 14.601562 C 6.515625 14.796875 6.195312 14.796875 6 14.601562 L 2.253906 10.855469 C 2.054688 10.65625 2.054688 10.339844 2.253906 10.140625 L 6 6.394531 C 6.195312 6.199219 6.515625 6.199219 6.714844 6.394531 Z M 6.714844 6.394531 "/>
<path style=" stroke:none;fill-rule:nonzero;fill:rgb(94.117647%,69.019608%,41.176471%);fill-opacity:1;" d="M 6.355469 6.246094 C 6.226562 6.246094 6.097656 6.296875 6 6.394531 L 3.574219 8.824219 L 4.207031 9.457031 L 6.074219 9.015625 L 6.339844 7.503906 L 7.050781 6.792969 L 6.535156 6.28125 C 6.476562 6.257812 6.417969 6.246094 6.355469 6.246094 Z M 6.355469 6.246094 "/>
<path style=" stroke:none;fill-rule:nonzero;fill:rgb(30.980392%,26.666667%,34.509804%);fill-opacity:1;" d="M 7.027344 6.773438 L 6.316406 7.484375 C 6.3125 7.488281 6.308594 7.492188 6.308594 7.5 L 6.046875 8.988281 L 4.21875 9.421875 L 3.59375 8.800781 L 3.550781 8.84375 L 4.1875 9.480469 C 4.195312 9.488281 4.203125 9.492188 4.214844 9.488281 L 6.078125 9.042969 C 6.09375 9.042969 6.101562 9.03125 6.101562 9.019531 L 6.367188 7.519531 L 7.070312 6.816406 Z M 7.027344 6.773438 "/>
<path style=" stroke:none;fill-rule:nonzero;fill:rgb(20.392157%,74.509804%,67.843137%);fill-opacity:1;" d="M 7.050781 6.792969 L 6.339844 7.503906 L 6.074219 9.015625 L 5.265625 9.207031 L 5.539062 12.03125 L 6.425781 12.921875 L 7.757812 12.300781 L 8.203125 12.742188 L 9.074219 12.238281 L 10.457031 10.855469 C 10.605469 10.710938 10.640625 10.5 10.574219 10.320312 Z M 7.050781 6.792969 "/>
<path style=" stroke:none;fill-rule:nonzero;fill:rgb(71.372549%,47.843137%,49.803922%);fill-opacity:1;" d="M 5.539062 12.03125 L 4.917969 12.121094 L 4.21875 12.820312 L 6 14.601562 C 6.195312 14.796875 6.515625 14.796875 6.714844 14.601562 L 9.074219 12.238281 L 8.203125 12.742188 L 7.757812 12.300781 L 6.425781 12.921875 Z M 5.539062 12.03125 "/>
<path style=" stroke:none;fill-rule:nonzero;fill:rgb(30.980392%,26.666667%,34.509804%);fill-opacity:1;" d="M 7.027344 6.773438 L 6.316406 7.484375 C 6.3125 7.488281 6.308594 7.492188 6.308594 7.5 L 6.046875 8.988281 L 5.261719 9.175781 C 5.246094 9.179688 5.234375 9.195312 5.234375 9.210938 L 5.503906 12.007812 L 4.914062 12.089844 C 4.90625 12.089844 4.902344 12.09375 4.894531 12.101562 L 4.1875 12.808594 L 4.230469 12.855469 L 4.933594 12.152344 L 5.542969 12.0625 C 5.5625 12.0625 5.574219 12.046875 5.570312 12.03125 L 5.300781 9.230469 L 6.078125 9.046875 C 6.09375 9.042969 6.101562 9.03125 6.101562 9.019531 L 6.367188 7.519531 L 7.070312 6.816406 Z M 7.027344 6.773438 "/>
<path style=" stroke:none;fill-rule:nonzero;fill:rgb(30.980392%,26.666667%,34.509804%);fill-opacity:1;" d="M 5.539062 12 C 5.53125 12 5.523438 12.003906 5.515625 12.011719 C 5.503906 12.023438 5.503906 12.042969 5.515625 12.054688 L 6.40625 12.941406 C 6.414062 12.953125 6.429688 12.953125 6.441406 12.949219 L 7.753906 12.335938 L 8.179688 12.765625 C 8.191406 12.777344 8.207031 12.777344 8.21875 12.769531 L 8.988281 12.324219 L 9.160156 12.152344 L 8.207031 12.703125 L 7.78125 12.277344 C 7.773438 12.269531 7.757812 12.265625 7.746094 12.269531 L 6.433594 12.882812 L 5.5625 12.011719 C 5.554688 12.003906 5.546875 12 5.539062 12 Z M 5.539062 12 "/>
<path style=" stroke:none;fill-rule:nonzero;fill:rgb(0%,0%,0%);fill-opacity:1;" d="M 6.355469 6.246094 C 6.226562 6.246094 6.097656 6.296875 6 6.394531 L 3.574219 8.824219 L 4.207031 9.457031 L 6.074219 9.015625 L 5.265625 9.207031 L 5.539062 12.03125 L 4.917969 12.121094 L 4.21875 12.820312 L 6 14.601562 C 6.195312 14.796875 6.515625 14.796875 6.714844 14.601562 L 10.457031 10.855469 C 10.605469 10.710938 10.640625 10.5 10.574219 10.320312 L 7.050781 6.792969 L 6.535156 6.28125 C 6.476562 6.257812 6.417969 6.246094 6.355469 6.246094 Z M 6.355469 6.246094 "/>
<path style="fill-rule:nonzero;fill:rgb(82.352941%,33.72549%,33.72549%);fill-opacity:1;stroke-width:1.25;stroke-linecap:round;stroke-linejoin:round;stroke:rgb(30.980392%,26.666667%,34.509804%);stroke-opacity:1;stroke-miterlimit:4;" d="M -25.708297 313.207465 C -25.708297 319.661783 -37.281557 336.687828 -37.281557 336.687828 C -37.281557 336.687828 -48.854816 319.661783 -48.854816 313.207465 C -48.854816 306.864429 -43.735874 301.634206 -37.281557 301.634206 C -30.93852 301.634206 -25.708297 306.864429 -25.708297 313.207465 Z M -25.708297 313.207465 " transform="matrix(0.0351025,0,0,0.0351025,6.566487,-3.072481)"/>
<path style=" stroke:none;fill-rule:nonzero;fill:rgb(100%,100%,100%);fill-opacity:1;" d="M 5.476562 7.929688 C 5.476562 8.050781 5.378906 8.148438 5.257812 8.148438 C 5.136719 8.148438 5.039062 8.050781 5.039062 7.929688 C 5.039062 7.808594 5.136719 7.710938 5.257812 7.710938 C 5.378906 7.710938 5.476562 7.808594 5.476562 7.929688 Z M 5.476562 7.929688 "/>
<path style=" stroke:none;fill-rule:nonzero;fill:rgb(82.352941%,33.72549%,33.72549%);fill-opacity:1;" d="M 5.371094 7.929688 C 5.371094 7.992188 5.320312 8.042969 5.257812 8.042969 C 5.195312 8.042969 5.140625 7.992188 5.140625 7.929688 C 5.140625 7.867188 5.195312 7.8125 5.257812 7.8125 C 5.320312 7.8125 5.371094 7.867188 5.371094 7.929688 Z M 5.371094 7.929688 "/>
<path style="fill-rule:nonzero;fill:rgb(82.352941%,33.72549%,33.72549%);fill-opacity:1;stroke-width:1.25;stroke-linecap:round;stroke-linejoin:round;stroke:rgb(30.980392%,26.666667%,34.509804%);stroke-opacity:1;stroke-miterlimit:4;" d="M -25.752641 313.210768 C -25.752641 319.626216 -37.32336 336.695891 -37.32336 336.695891 C -37.32336 336.695891 -48.89408 319.626216 -48.89408 313.210768 C -48.89408 306.795319 -43.738809 301.640048 -37.32336 301.640048 C -30.907912 301.640048 -25.752641 306.909881 -25.752641 313.210768 Z M -25.752641 313.210768 " transform="matrix(0.0340974,0,0,0.0340974,8.342941,2.589864)"/>
<path style=" stroke:none;fill-rule:nonzero;fill:rgb(100%,100%,100%);fill-opacity:1;" d="M 7.285156 13.277344 C 7.285156 13.394531 7.1875 13.488281 7.070312 13.488281 C 6.953125 13.488281 6.859375 13.394531 6.859375 13.277344 C 6.859375 13.160156 6.953125 13.0625 7.070312 13.0625 C 7.1875 13.0625 7.285156 13.160156 7.285156 13.277344 Z M 7.285156 13.277344 "/>
<path style=" stroke:none;fill-rule:nonzero;fill:rgb(82.352941%,33.72549%,33.72549%);fill-opacity:1;" d="M 7.183594 13.277344 C 7.183594 13.335938 7.132812 13.386719 7.070312 13.386719 C 7.007812 13.386719 6.960938 13.335938 6.960938 13.277344 C 6.960938 13.214844 7.007812 13.164062 7.070312 13.164062 C 7.132812 13.164062 7.183594 13.214844 7.183594 13.277344 Z M 7.183594 13.277344 "/>
<path style="fill-rule:nonzero;fill:rgb(82.352941%,33.72549%,33.72549%);fill-opacity:1;stroke-width:1.25;stroke-linecap:round;stroke-linejoin:round;stroke:rgb(30.980392%,26.666667%,34.509804%);stroke-opacity:1;stroke-miterlimit:4;" d="M -25.76281 313.225537 C -25.76281 319.595168 -37.24903 336.720079 -37.24903 336.720079 C -37.24903 336.720079 -48.839671 319.595168 -48.839671 313.225537 C -48.839671 306.855905 -43.723082 301.634896 -37.24903 301.634896 C -30.879399 301.634896 -25.76281 306.855905 -25.76281 313.225537 Z M -25.76281 313.225537 " transform="matrix(0.037409,0,0,0.037409,5.580947,-1.447909)"/>
<path style=" stroke:none;fill-rule:nonzero;fill:rgb(100%,100%,100%);fill-opacity:1;" d="M 4.417969 10.277344 C 4.417969 10.40625 4.3125 10.507812 4.1875 10.507812 C 4.058594 10.507812 3.953125 10.40625 3.953125 10.277344 C 3.953125 10.148438 4.058594 10.042969 4.1875 10.042969 C 4.3125 10.042969 4.417969 10.148438 4.417969 10.277344 Z M 4.417969 10.277344 "/>
<path style=" stroke:none;fill-rule:nonzero;fill:rgb(82.352941%,33.72549%,33.72549%);fill-opacity:1;" d="M 4.308594 10.277344 C 4.308594 10.34375 4.253906 10.398438 4.1875 10.398438 C 4.117188 10.398438 4.0625 10.34375 4.0625 10.277344 C 4.0625 10.207031 4.117188 10.152344 4.1875 10.152344 C 4.253906 10.152344 4.308594 10.207031 4.308594 10.277344 Z M 4.308594 10.277344 "/>
<path style="fill-rule:nonzero;fill:rgb(82.352941%,33.72549%,33.72549%);fill-opacity:1;stroke-width:1.25;stroke-linecap:round;stroke-linejoin:round;stroke:rgb(30.980392%,26.666667%,34.509804%);stroke-opacity:1;stroke-miterlimit:4;" d="M -25.714613 313.202193 C -25.714613 319.610955 -37.287716 336.659505 -37.287716 336.659505 C -37.287716 336.659505 -48.860819 319.610955 -48.860819 313.202193 C -48.860819 306.793432 -43.696477 301.62909 -37.287716 301.62909 C -30.878954 301.62909 -25.714613 306.855653 -25.714613 313.202193 Z M -25.714613 313.202193 " transform="matrix(0.0627803,0,0,0.0627803,10.040151,-10.057448)"/>
<path style=" stroke:none;fill-rule:nonzero;fill:rgb(100%,100%,100%);fill-opacity:1;" d="M 8.089844 9.617188 C 8.089844 9.832031 7.914062 10.007812 7.699219 10.007812 C 7.484375 10.007812 7.308594 9.832031 7.308594 9.617188 C 7.308594 9.402344 7.484375 9.226562 7.699219 9.226562 C 7.914062 9.226562 8.089844 9.402344 8.089844 9.617188 Z M 8.089844 9.617188 "/>
<path style=" stroke:none;fill-rule:nonzero;fill:rgb(82.352941%,33.72549%,33.72549%);fill-opacity:1;" d="M 7.902344 9.617188 C 7.902344 9.730469 7.8125 9.824219 7.699219 9.824219 C 7.585938 9.824219 7.492188 9.730469 7.492188 9.617188 C 7.492188 9.503906 7.585938 9.414062 7.699219 9.414062 C 7.8125 9.414062 7.902344 9.503906 7.902344 9.617188 Z M 7.902344 9.617188 "/>
<path style="fill:none;stroke-width:6.2;stroke-linecap:round;stroke-linejoin:round;stroke:rgb(30.980392%,26.666667%,34.509804%);stroke-opacity:1;stroke-miterlimit:4;" d="M 637.397859 102.764549 L 806.838328 102.852938 C 815.85394 102.852938 823.013396 110.012394 823.013396 119.028006 L 823.101784 288.468475 C 823.013396 297.395699 815.765551 304.643543 806.926716 304.643543 L 637.397859 304.643543 C 628.382247 304.643543 621.22279 297.484087 621.22279 288.468475 L 621.22279 118.939618 C 621.22279 110.100783 628.470635 102.852938 637.397859 102.764549 Z M 637.397859 102.764549 " transform="matrix(0.0220971,0.0220971,-0.0220971,0.0220971,-5.098994,-9.960901)"/>
<path style=" stroke:none;fill-rule:nonzero;fill:rgb(51.764706%,83.529412%,91.764706%);fill-opacity:1;" d="M 2.152344 7.742188 L 6.101562 3.792969 C 6.242188 3.652344 6.515625 3.699219 6.714844 3.894531 L 10.457031 7.640625 C 10.65625 7.839844 10.703125 8.113281 10.5625 8.253906 L 6.609375 12.203125 C 6.46875 12.34375 6.195312 12.296875 6 12.101562 L 2.253906 8.355469 C 2.054688 8.15625 2.011719 7.886719 2.152344 7.742188 Z M 2.152344 7.742188 "/>
<path style=" stroke:none;fill-rule:nonzero;fill:rgb(20.392157%,74.509804%,67.843137%);fill-opacity:1;" d="M 4.917969 4.976562 L 2.152344 7.742188 C 2.082031 7.8125 2.058594 7.914062 2.074219 8.023438 C 2.285156 8.136719 2.503906 8.222656 2.734375 8.273438 C 3.082031 8.347656 3.453125 8.359375 3.800781 8.273438 C 4.222656 8.167969 4.683594 7.996094 4.953125 7.652344 C 5.253906 7.265625 5.320312 6.71875 5.308594 6.230469 C 5.296875 5.816406 5.0625 5.4375 4.941406 5.042969 C 4.933594 5.019531 4.925781 4.996094 4.917969 4.976562 Z M 4.917969 4.976562 "/>
<path style=" stroke:none;fill-rule:nonzero;fill:rgb(78.431373%,84.705882%,32.54902%);fill-opacity:1;" d="M 4.511719 5.382812 L 2.214844 7.679688 C 2.441406 7.738281 2.679688 7.777344 2.910156 7.742188 C 3.265625 7.683594 3.617188 7.53125 3.886719 7.296875 C 4.179688 7.042969 4.414062 6.695312 4.507812 6.320312 C 4.589844 6.015625 4.5625 5.699219 4.511719 5.382812 Z M 4.511719 5.382812 "/>
<path style=" stroke:none;fill-rule:nonzero;fill:rgb(20.392157%,74.509804%,67.843137%);fill-opacity:1;" d="M 6.304688 3.710938 C 6.226562 3.714844 6.152344 3.742188 6.101562 3.792969 L 5.867188 4.03125 C 5.890625 4.152344 5.914062 4.269531 5.929688 4.367188 C 6.0625 5.160156 6.152344 5.960938 6.195312 6.765625 C 6.210938 7.058594 6.082031 7.378906 6.195312 7.652344 C 6.386719 8.117188 6.8125 8.492188 7.261719 8.71875 C 7.636719 8.902344 8.085938 8.90625 8.503906 8.894531 C 9.101562 8.878906 9.738281 8.824219 10.269531 8.546875 L 10.5 8.316406 C 10.652344 8.117188 10.640625 7.832031 10.457031 7.652344 L 6.632812 3.828125 C 6.527344 3.75 6.410156 3.710938 6.304688 3.710938 Z M 6.304688 3.710938 "/>
<path style=" stroke:none;fill-rule:nonzero;fill:rgb(78.431373%,84.705882%,32.54902%);fill-opacity:1;" d="M 6.304688 3.710938 C 6.226562 3.714844 6.152344 3.742188 6.101562 3.792969 L 6.101562 3.796875 C 6.136719 3.90625 6.171875 4.015625 6.195312 4.101562 C 6.429688 4.890625 6.507812 5.734375 6.816406 6.496094 C 6.996094 6.941406 7.179688 7.414062 7.527344 7.742188 C 7.816406 8.011719 8.207031 8.183594 8.59375 8.273438 C 9.21875 8.421875 9.925781 8.519531 10.523438 8.28125 C 10.652344 8.085938 10.628906 7.824219 10.457031 7.652344 L 6.632812 3.828125 C 6.527344 3.75 6.410156 3.710938 6.304688 3.710938 Z M 6.304688 3.710938 "/>
<path style=" stroke:none;fill-rule:nonzero;fill:rgb(94.117647%,69.019608%,41.176471%);fill-opacity:1;" d="M 6.398438 3.722656 C 6.496094 3.9375 6.636719 4.234375 6.730469 4.457031 C 6.980469 5.042969 7.117188 5.679688 7.4375 6.230469 C 7.628906 6.558594 7.859375 6.875 8.148438 7.117188 C 8.484375 7.398438 8.898438 7.578125 9.304688 7.742188 C 9.617188 7.867188 9.945312 7.960938 10.28125 8.007812 C 10.367188 8.019531 10.496094 8.019531 10.605469 8.015625 C 10.605469 7.882812 10.558594 7.753906 10.457031 7.652344 L 6.632812 3.828125 C 6.558594 3.769531 6.476562 3.734375 6.398438 3.722656 Z M 6.398438 3.722656 "/>
<path style=" stroke:none;fill-rule:nonzero;fill:rgb(97.647059%,47.058824%,43.529412%);fill-opacity:1;" d="M 6.550781 3.746094 C 6.550781 3.746094 6.84375 4.28125 6.996094 4.542969 C 7.167969 4.84375 7.339844 5.140625 7.527344 5.433594 C 7.78125 5.824219 8.007812 6.246094 8.328125 6.585938 C 8.585938 6.863281 8.890625 7.097656 9.214844 7.296875 C 9.519531 7.484375 9.859375 7.609375 10.191406 7.742188 C 10.304688 7.785156 10.464844 7.835938 10.585938 7.875 C 10.5625 7.792969 10.523438 7.714844 10.457031 7.652344 Z M 6.550781 3.746094 "/>
<path style=" stroke:none;fill-rule:nonzero;fill:rgb(20.392157%,74.509804%,67.843137%);fill-opacity:1;" d="M 7.671875 9.609375 C 7.628906 9.570312 7.582031 9.535156 7.527344 9.515625 C 7.117188 9.367188 6.796875 10.03125 6.375 10.136719 C 6.144531 10.195312 5.875 10.246094 5.664062 10.136719 C 5.4375 10.019531 5.277344 9.765625 5.21875 9.515625 C 5.136719 9.164062 5.671875 8.679688 5.398438 8.449219 C 4.792969 7.945312 3.175781 9.25 3.175781 9.25 L 6.019531 12.089844 C 6.214844 12.289062 6.53125 12.289062 6.730469 12.089844 L 7.707031 11.113281 C 7.824219 10.902344 7.898438 10.648438 7.882812 10.402344 C 7.867188 10.144531 7.839844 9.792969 7.671875 9.609375 Z M 7.671875 9.609375 "/>
<path style=" stroke:none;fill-rule:nonzero;fill:rgb(78.431373%,84.705882%,32.54902%);fill-opacity:1;" d="M 7.484375 10.449219 C 7.417969 10.386719 7.34375 10.335938 7.261719 10.316406 C 6.933594 10.230469 6.621094 10.570312 6.285156 10.582031 C 5.984375 10.59375 5.664062 10.546875 5.398438 10.402344 C 5.175781 10.285156 4.953125 10.105469 4.863281 9.871094 C 4.730469 9.507812 5.261719 8.949219 4.953125 8.71875 C 4.476562 8.355469 3.265625 9.339844 3.265625 9.339844 L 6.019531 12.089844 C 6.214844 12.289062 6.53125 12.289062 6.730469 12.089844 L 7.4375 11.378906 C 7.558594 11.167969 7.683594 10.90625 7.617188 10.671875 C 7.59375 10.589844 7.546875 10.511719 7.484375 10.449219 Z M 7.484375 10.449219 "/>
<path style=" stroke:none;fill-rule:nonzero;fill:rgb(94.117647%,69.019608%,41.176471%);fill-opacity:1;" d="M 7.039062 10.890625 C 6.976562 10.828125 6.898438 10.78125 6.816406 10.757812 C 6.492188 10.671875 6.179688 11.015625 5.839844 11.027344 C 5.539062 11.035156 5.21875 10.992188 4.953125 10.847656 C 4.730469 10.730469 4.507812 10.550781 4.421875 10.316406 C 4.285156 9.953125 4.8125 9.398438 4.507812 9.160156 C 4.214844 8.929688 3.445312 9.515625 3.445312 9.515625 L 6.019531 12.089844 C 6.214844 12.289062 6.53125 12.289062 6.730469 12.089844 L 6.996094 11.824219 C 7.117188 11.613281 7.238281 11.347656 7.171875 11.113281 C 7.148438 11.035156 7.101562 10.957031 7.039062 10.890625 Z M 7.039062 10.890625 "/>
<path style=" stroke:none;fill-rule:nonzero;fill:rgb(30.980392%,26.666667%,34.509804%);fill-opacity:1;" d="M 7.0625 10.871094 C 6.996094 10.804688 6.914062 10.753906 6.824219 10.730469 C 6.648438 10.683594 6.480469 10.75 6.320312 10.828125 C 6.15625 10.902344 6 10.988281 5.839844 10.992188 C 5.542969 11.003906 5.226562 10.960938 4.96875 10.820312 C 4.75 10.703125 4.53125 10.527344 4.449219 10.304688 C 4.390625 10.140625 4.480469 9.917969 4.558594 9.703125 C 4.597656 9.59375 4.632812 9.488281 4.636719 9.390625 C 4.640625 9.292969 4.613281 9.203125 4.527344 9.136719 C 4.445312 9.070312 4.332031 9.066406 4.210938 9.089844 C 4.09375 9.113281 3.96875 9.164062 3.851562 9.222656 C 3.617188 9.34375 3.425781 9.492188 3.425781 9.492188 C 3.425781 9.492188 3.421875 9.492188 3.421875 9.496094 L 3.464844 9.539062 C 3.476562 9.53125 3.660156 9.394531 3.878906 9.28125 C 3.992188 9.222656 4.113281 9.171875 4.222656 9.148438 C 4.332031 9.128906 4.425781 9.136719 4.488281 9.1875 C 4.558594 9.238281 4.578125 9.304688 4.574219 9.390625 C 4.570312 9.472656 4.539062 9.574219 4.5 9.679688 C 4.421875 9.894531 4.316406 10.128906 4.390625 10.328125 C 4.480469 10.574219 4.714844 10.753906 4.9375 10.875 C 5.210938 11.023438 5.535156 11.066406 5.84375 11.058594 C 6.019531 11.050781 6.1875 10.960938 6.347656 10.882812 C 6.507812 10.808594 6.660156 10.75 6.808594 10.789062 C 6.882812 10.808594 6.957031 10.855469 7.015625 10.914062 C 7.078125 10.972656 7.121094 11.046875 7.140625 11.121094 C 7.203125 11.34375 7.085938 11.597656 6.96875 11.808594 C 6.960938 11.820312 6.964844 11.835938 6.972656 11.84375 L 7.074219 11.746094 C 7.175781 11.550781 7.261719 11.320312 7.203125 11.105469 C 7.179688 11.019531 7.128906 10.9375 7.0625 10.871094 Z M 7.0625 10.871094 "/>
<path style=" stroke:none;fill-rule:nonzero;fill:rgb(30.980392%,26.666667%,34.509804%);fill-opacity:1;" d="M 7.503906 10.425781 C 7.4375 10.359375 7.355469 10.308594 7.269531 10.285156 C 7.09375 10.238281 6.925781 10.308594 6.765625 10.382812 C 6.601562 10.460938 6.441406 10.542969 6.285156 10.550781 C 5.984375 10.558594 5.671875 10.515625 5.410156 10.375 C 5.195312 10.261719 4.976562 10.085938 4.894531 9.859375 C 4.832031 9.695312 4.925781 9.472656 5.003906 9.257812 C 5.042969 9.148438 5.078125 9.042969 5.082031 8.945312 C 5.085938 8.847656 5.058594 8.757812 4.972656 8.691406 C 4.84375 8.59375 4.667969 8.589844 4.480469 8.632812 C 4.296875 8.671875 4.097656 8.765625 3.914062 8.863281 C 3.550781 9.066406 3.246094 9.3125 3.246094 9.3125 C 3.246094 9.316406 3.246094 9.316406 3.246094 9.316406 L 3.289062 9.359375 C 3.296875 9.355469 3.589844 9.117188 3.945312 8.917969 C 4.125 8.820312 4.320312 8.734375 4.496094 8.691406 C 4.671875 8.652344 4.824219 8.660156 4.933594 8.742188 C 5.003906 8.792969 5.023438 8.859375 5.019531 8.941406 C 5.015625 9.027344 4.984375 9.128906 4.945312 9.234375 C 4.867188 9.449219 4.761719 9.683594 4.835938 9.882812 C 4.925781 10.128906 5.15625 10.3125 5.382812 10.433594 C 5.65625 10.578125 5.980469 10.625 6.285156 10.613281 C 6.464844 10.605469 6.628906 10.515625 6.789062 10.441406 C 6.949219 10.363281 7.101562 10.304688 7.253906 10.34375 C 7.328125 10.367188 7.402344 10.410156 7.460938 10.46875 C 7.519531 10.53125 7.566406 10.605469 7.585938 10.679688 C 7.648438 10.898438 7.53125 11.15625 7.410156 11.363281 C 7.40625 11.378906 7.410156 11.390625 7.417969 11.402344 L 7.515625 11.300781 C 7.621094 11.105469 7.707031 10.878906 7.648438 10.660156 C 7.621094 10.574219 7.570312 10.492188 7.503906 10.425781 Z M 7.503906 10.425781 "/>
<path style=" stroke:none;fill-rule:nonzero;fill:rgb(30.980392%,26.666667%,34.509804%);fill-opacity:1;" d="M 7.691406 9.589844 C 7.652344 9.542969 7.597656 9.507812 7.539062 9.488281 C 7.425781 9.445312 7.320312 9.460938 7.21875 9.507812 C 7.121094 9.550781 7.027344 9.625 6.933594 9.707031 C 6.75 9.871094 6.566406 10.058594 6.367188 10.105469 C 6.136719 10.164062 5.875 10.210938 5.675781 10.109375 C 5.460938 10 5.304688 9.75 5.25 9.507812 C 5.214844 9.351562 5.320312 9.148438 5.410156 8.953125 C 5.453125 8.855469 5.496094 8.757812 5.503906 8.667969 C 5.515625 8.578125 5.496094 8.492188 5.417969 8.425781 C 5.253906 8.292969 5.03125 8.28125 4.789062 8.332031 C 4.546875 8.386719 4.285156 8.5 4.046875 8.632812 C 3.5625 8.898438 3.15625 9.226562 3.15625 9.226562 L 3.199219 9.273438 C 3.207031 9.265625 3.605469 8.949219 4.074219 8.6875 C 4.3125 8.558594 4.570312 8.445312 4.800781 8.394531 C 5.035156 8.34375 5.234375 8.359375 5.375 8.476562 C 5.4375 8.527344 5.453125 8.585938 5.441406 8.660156 C 5.433594 8.738281 5.398438 8.828125 5.351562 8.925781 C 5.265625 9.117188 5.144531 9.328125 5.1875 9.523438 C 5.246094 9.777344 5.410156 10.042969 5.648438 10.164062 C 5.871094 10.28125 6.148438 10.226562 6.382812 10.167969 C 6.605469 10.113281 6.792969 9.914062 6.976562 9.753906 C 7.066406 9.675781 7.15625 9.605469 7.246094 9.5625 C 7.335938 9.523438 7.421875 9.511719 7.515625 9.546875 C 7.566406 9.5625 7.609375 9.59375 7.648438 9.632812 C 7.804688 9.800781 7.835938 10.148438 7.851562 10.40625 C 7.867188 10.640625 7.796875 10.890625 7.679688 11.097656 C 7.671875 11.109375 7.675781 11.125 7.683594 11.136719 L 7.777344 11.039062 C 7.875 10.84375 7.929688 10.621094 7.914062 10.402344 C 7.898438 10.144531 7.875 9.785156 7.691406 9.589844 Z M 7.691406 9.589844 "/>
<path style=" stroke:none;fill-rule:nonzero;fill:rgb(30.980392%,26.666667%,34.509804%);fill-opacity:1;" d="M 4.539062 5.355469 L 4.484375 5.410156 C 4.53125 5.71875 4.554688 6.023438 4.480469 6.3125 C 4.382812 6.679688 4.152344 7.023438 3.867188 7.273438 C 3.601562 7.503906 3.253906 7.652344 2.90625 7.710938 C 2.6875 7.742188 2.460938 7.710938 2.242188 7.652344 L 2.191406 7.703125 C 2.425781 7.769531 2.671875 7.808594 2.914062 7.769531 C 3.273438 7.714844 3.632812 7.558594 3.90625 7.320312 C 4.203125 7.0625 4.441406 6.707031 4.539062 6.328125 C 4.621094 6.007812 4.589844 5.679688 4.539062 5.355469 Z M 4.539062 5.355469 "/>
<path style=" stroke:none;fill-rule:nonzero;fill:rgb(30.980392%,26.666667%,34.509804%);fill-opacity:1;" d="M 4.945312 4.949219 L 4.894531 5 C 4.898438 5.015625 4.90625 5.035156 4.910156 5.050781 C 5.035156 5.453125 5.265625 5.828125 5.277344 6.230469 C 5.289062 6.714844 5.21875 7.257812 4.929688 7.632812 C 4.667969 7.96875 4.210938 8.136719 3.792969 8.242188 C 3.453125 8.328125 3.082031 8.316406 2.738281 8.242188 C 2.507812 8.191406 2.285156 8.101562 2.074219 7.988281 C 2.074219 8.011719 2.078125 8.039062 2.085938 8.066406 C 2.289062 8.171875 2.503906 8.253906 2.726562 8.304688 C 3.078125 8.378906 3.457031 8.390625 3.804688 8.304688 C 4.234375 8.195312 4.703125 8.027344 4.976562 7.671875 C 5.285156 7.277344 5.351562 6.722656 5.339844 6.230469 C 5.328125 5.804688 5.09375 5.421875 4.972656 5.03125 C 4.960938 5.003906 4.953125 4.976562 4.945312 4.949219 Z M 4.945312 4.949219 "/>
<path style=" stroke:none;fill-rule:nonzero;fill:rgb(30.980392%,26.666667%,34.509804%);fill-opacity:1;" d="M 6.53125 3.722656 C 6.519531 3.734375 6.519531 3.75 6.523438 3.761719 C 6.523438 3.761719 6.816406 4.296875 6.96875 4.558594 C 7.140625 4.859375 7.3125 5.160156 7.5 5.449219 C 7.753906 5.839844 7.980469 6.261719 8.304688 6.609375 C 8.566406 6.886719 8.875 7.125 9.199219 7.324219 C 9.507812 7.511719 9.847656 7.640625 10.179688 7.769531 C 10.296875 7.816406 10.457031 7.867188 10.574219 7.90625 C 10.582031 7.90625 10.589844 7.90625 10.59375 7.902344 C 10.589844 7.882812 10.582031 7.859375 10.574219 7.839844 C 10.457031 7.800781 10.308594 7.753906 10.203125 7.710938 C 9.871094 7.582031 9.53125 7.453125 9.230469 7.269531 C 8.910156 7.074219 8.605469 6.839844 8.351562 6.566406 C 8.035156 6.226562 7.808594 5.808594 7.554688 5.414062 C 7.367188 5.125 7.195312 4.828125 7.023438 4.527344 C 6.894531 4.308594 6.699219 3.949219 6.628906 3.824219 Z M 6.53125 3.722656 "/>
<path style=" stroke:none;fill-rule:nonzero;fill:rgb(30.980392%,26.666667%,34.509804%);fill-opacity:1;" d="M 6.359375 3.714844 C 6.457031 3.929688 6.601562 4.242188 6.699219 4.46875 C 6.949219 5.050781 7.085938 5.691406 7.410156 6.246094 C 7.605469 6.578125 7.832031 6.898438 8.128906 7.144531 C 8.46875 7.425781 8.886719 7.605469 9.292969 7.769531 C 9.605469 7.894531 9.9375 7.992188 10.277344 8.039062 C 10.363281 8.050781 10.492188 8.050781 10.601562 8.046875 C 10.601562 8.027344 10.605469 8.003906 10.601562 7.984375 C 10.496094 7.988281 10.367188 7.988281 10.285156 7.976562 C 9.953125 7.929688 9.625 7.835938 9.316406 7.710938 C 8.910156 7.550781 8.5 7.371094 8.167969 7.09375 C 7.882812 6.855469 7.65625 6.539062 7.464844 6.214844 C 7.148438 5.671875 7.007812 5.03125 6.757812 4.441406 C 6.664062 4.21875 6.527344 3.929688 6.4375 3.730469 C 6.410156 3.722656 6.386719 3.71875 6.359375 3.714844 Z M 6.359375 3.714844 "/>
<path style=" stroke:none;fill-rule:nonzero;fill:rgb(30.980392%,26.666667%,34.509804%);fill-opacity:1;" d="M 6.125 3.773438 C 6.117188 3.78125 6.109375 3.785156 6.101562 3.792969 L 6.074219 3.820312 C 6.109375 3.925781 6.140625 4.027344 6.164062 4.109375 C 6.398438 4.898438 6.476562 5.738281 6.789062 6.507812 C 6.96875 6.949219 7.152344 7.429688 7.507812 7.761719 C 7.800781 8.042969 8.195312 8.210938 8.585938 8.304688 C 9.195312 8.449219 9.886719 8.546875 10.484375 8.328125 C 10.503906 8.304688 10.523438 8.28125 10.535156 8.253906 C 10.527344 8.25 10.519531 8.25 10.511719 8.253906 C 9.925781 8.484375 9.222656 8.390625 8.601562 8.242188 C 8.21875 8.152344 7.832031 7.984375 7.550781 7.71875 C 7.210938 7.394531 7.027344 6.929688 6.847656 6.484375 C 6.539062 5.726562 6.460938 4.886719 6.226562 4.089844 C 6.199219 4 6.164062 3.890625 6.125 3.773438 Z M 6.125 3.773438 "/>
<path style=" stroke:none;fill-rule:nonzero;fill:rgb(30.980392%,26.666667%,34.509804%);fill-opacity:1;" d="M 5.890625 4.003906 L 5.839844 4.054688 C 5.863281 4.171875 5.882812 4.28125 5.898438 4.371094 C 6.03125 5.164062 6.121094 5.964844 6.164062 6.765625 C 6.171875 6.90625 6.144531 7.058594 6.128906 7.210938 C 6.113281 7.363281 6.105469 7.519531 6.167969 7.664062 C 6.363281 8.136719 6.792969 8.519531 7.246094 8.746094 C 7.628906 8.9375 8.085938 8.9375 8.503906 8.925781 C 9.074219 8.910156 9.679688 8.863281 10.199219 8.613281 L 10.296875 8.519531 C 10.289062 8.511719 10.277344 8.507812 10.265625 8.511719 C 9.742188 8.792969 9.105469 8.847656 8.503906 8.863281 C 8.085938 8.875 7.640625 8.871094 7.277344 8.6875 C 6.832031 8.46875 6.414062 8.09375 6.226562 7.640625 C 6.171875 7.511719 6.175781 7.367188 6.191406 7.21875 C 6.207031 7.070312 6.234375 6.914062 6.226562 6.761719 C 6.183594 5.957031 6.09375 5.15625 5.960938 4.363281 C 5.941406 4.257812 5.917969 4.132812 5.890625 4.003906 Z M 5.890625 4.003906 "/>
<path style="fill:none;stroke-width:6;stroke-linecap:round;stroke-linejoin:round;stroke:rgb(30.980392%,26.666667%,34.509804%);stroke-opacity:1;stroke-miterlimit:4;" d="M 149.405253 241.769273 L 275.780258 115.394268 C 280.280258 110.894268 289.030258 112.394268 295.405258 118.644268 L 415.155263 238.519273 C 421.530263 244.894273 423.030263 253.644273 418.530263 258.144273 L 292.030258 384.519278 C 287.530258 389.019278 278.780258 387.519278 272.530258 381.269278 L 152.655253 261.394273 C 146.280253 255.019273 144.905253 246.394273 149.405253 241.769273 Z M 149.405253 241.769273 " transform="matrix(0.03125,0,0,0.03125,-2.51657,0.186898)"/>
<path style=" stroke:none;fill-rule:nonzero;fill:rgb(78.431373%,84.705882%,32.54902%);fill-opacity:1;" d="M 2.273438 5.144531 L 6 1.414062 C 6.199219 1.21875 6.515625 1.21875 6.710938 1.414062 L 10.441406 5.144531 C 10.636719 5.339844 10.636719 5.65625 10.441406 5.851562 L 6.710938 9.582031 C 6.515625 9.777344 6.195312 9.777344 6 9.582031 L 2.273438 5.855469 C 2.074219 5.65625 2.074219 5.339844 2.273438 5.144531 Z M 2.273438 5.144531 "/>
<path style="fill-rule:nonzero;fill:rgb(96.862745%,89.803922%,70.980392%);fill-opacity:1;stroke-width:2.51121;stroke-linecap:butt;stroke-linejoin:round;stroke:rgb(30.980392%,26.666667%,34.509804%);stroke-opacity:1;stroke-miterlimit:4;" d="M 230.476891 247.049593 L 240.726892 218.799592 L 269.101893 229.049592 L 280.226893 286.549594 L 261.351892 279.674594 L 255.351892 266.799593 L 236.476891 259.924593 Z M 230.476891 247.049593 " transform="matrix(0.03125,0,0,0.03125,-2.268809,-0.00154947)"/>
<path style="fill-rule:nonzero;fill:rgb(25.098039%,72.54902%,67.843137%);fill-opacity:1;stroke-width:2.51121;stroke-linecap:butt;stroke-linejoin:round;stroke:rgb(30.980392%,26.666667%,34.509804%);stroke-opacity:1;stroke-miterlimit:4;" d="M 269.101893 229.049592 L 257.851892 171.54959 L 240.726892 218.799592 Z M 269.101893 229.049592 " transform="matrix(0.03125,0,0,0.03125,-2.268809,-0.00154947)"/>
<path style=" stroke:none;fill-rule:nonzero;fill:rgb(48.235294%,81.568627%,81.960784%);fill-opacity:1;" d="M 4.742188 2.738281 L 3.699219 5.601562 L 5.46875 6.246094 L 5.789062 5.359375 L 5.199219 5.144531 L 6.597656 1.3125 L 6.300781 1.203125 L 5.792969 1.6875 Z M 4.742188 2.738281 "/>
<path style="fill-rule:nonzero;fill:rgb(100%,97.254902%,87.45098%);fill-opacity:1;stroke-width:2.51121;stroke-linecap:butt;stroke-linejoin:round;stroke:rgb(30.980392%,26.666667%,34.509804%);stroke-opacity:1;stroke-miterlimit:4;" d="M 238.976891 164.674589 L 220.101891 157.799589 L 244.226892 91.799587 L 263.101892 98.674587 Z M 238.976891 164.674589 " transform="matrix(0.03125,0,0,0.03125,-2.268809,-0.00154947)"/>
<path style="fill-rule:nonzero;fill:rgb(25.098039%,72.54902%,67.843137%);fill-opacity:1;stroke-width:2.51121;stroke-linecap:butt;stroke-linejoin:round;stroke:rgb(30.980392%,26.666667%,34.509804%);stroke-opacity:1;stroke-miterlimit:4;" d="M 263.101892 98.674587 L 238.976891 164.674589 L 257.851892 171.54959 L 271.601893 133.799588 L 281.101893 137.299588 L 291.351894 108.924587 Z M 263.101892 98.674587 " transform="matrix(0.03125,0,0,0.03125,-2.268809,-0.00154947)"/>
<path style="fill-rule:nonzero;fill:rgb(96.470588%,80.784314%,46.27451%);fill-opacity:1;stroke-width:2.51121;stroke-linecap:butt;stroke-linejoin:round;stroke:rgb(30.980392%,26.666667%,34.509804%);stroke-opacity:1;stroke-miterlimit:4;" d="M 263.476892 200.299591 L 257.851892 171.54959 L 271.601893 133.799588 L 281.101893 137.299588 L 291.351894 108.924587 L 305.601894 114.049587 L 272.976893 203.799591 Z M 263.476892 200.299591 " transform="matrix(0.03125,0,0,0.03125,-2.268809,-0.00154947)"/>
<path style="fill-rule:nonzero;fill:rgb(91.372549%,70.588235%,38.431373%);fill-opacity:1;stroke-width:2.51121;stroke-linecap:butt;stroke-linejoin:round;stroke:rgb(30.980392%,26.666667%,34.509804%);stroke-opacity:1;stroke-miterlimit:4;" d="M 263.476892 200.299591 L 269.101893 229.049592 L 287.976893 235.924592 L 311.976894 169.92459 L 288.351893 161.299589 L 272.976893 203.799591 Z M 263.476892 200.299591 " transform="matrix(0.03125,0,0,0.03125,-2.268809,-0.00154947)"/>
<path style="fill-rule:nonzero;fill:rgb(100%,96.862745%,89.019608%);fill-opacity:1;stroke-width:2.51121;stroke-linecap:butt;stroke-linejoin:round;stroke:rgb(30.980392%,26.666667%,34.509804%);stroke-opacity:1;stroke-miterlimit:4;" d="M 315.851895 85.799586 L 288.351893 161.299589 L 311.976894 169.92459 L 338.601895 96.549587 L 334.726895 92.674587 Z M 315.851895 85.799586 " transform="matrix(0.03125,0,0,0.03125,-2.268809,-0.00154947)"/>
<path style=" stroke:none;fill-rule:nonzero;fill:rgb(91.372549%,70.588235%,38.431373%);fill-opacity:1;" d="M 6.589844 1.324219 L 5.953125 3.082031 L 6.835938 3.402344 L 7.335938 2.035156 L 6.710938 1.414062 C 6.675781 1.378906 6.632812 1.347656 6.589844 1.324219 Z M 6.589844 1.324219 "/>
<path style="fill-rule:nonzero;fill:rgb(25.098039%,72.54902%,67.843137%);fill-opacity:1;stroke-width:2.51121;stroke-linecap:butt;stroke-linejoin:round;stroke:rgb(30.980392%,26.666667%,34.509804%);stroke-opacity:1;stroke-miterlimit:4;" d="M 307.351894 65.174586 L 291.351894 108.924587 L 305.601894 114.049587 L 315.851895 85.799586 L 321.601895 79.549586 " transform="matrix(0.03125,0,0,0.03125,-2.268809,-0.00154947)"/>
<path style="fill-rule:nonzero;fill:rgb(96.862745%,89.803922%,70.980392%);fill-opacity:1;stroke-width:2.51121;stroke-linecap:butt;stroke-linejoin:round;stroke:rgb(30.980392%,26.666667%,34.509804%);stroke-opacity:1;stroke-miterlimit:4;" d="M 321.601895 79.549586 L 315.851895 85.799586 L 334.726895 92.674587 M 338.601895 96.549587 L 332.601895 113.174587 L 346.726896 118.424588 L 350.351896 108.299587 " transform="matrix(0.03125,0,0,0.03125,-2.268809,-0.00154947)"/>
<path style="fill-rule:nonzero;fill:rgb(48.235294%,81.568627%,81.960784%);fill-opacity:1;stroke-width:2.51121;stroke-linecap:butt;stroke-linejoin:round;stroke:rgb(30.980392%,26.666667%,34.509804%);stroke-opacity:1;stroke-miterlimit:4;" d="M 323.976895 136.799588 L 346.726896 177.17459 L 320.976895 247.924593 L 287.976893 235.924592 Z M 323.976895 136.799588 " transform="matrix(0.03125,0,0,0.03125,-2.268809,-0.00154947)"/>
<path style="fill-rule:nonzero;fill:rgb(100%,96.862745%,89.019608%);fill-opacity:1;stroke-width:2.51121;stroke-linecap:butt;stroke-linejoin:round;stroke:rgb(30.980392%,26.666667%,34.509804%);stroke-opacity:1;stroke-miterlimit:4;" d="M 280.226893 286.549594 L 294.351894 291.674594 L 302.976894 268.174594 L 312.351894 271.549594 L 320.976895 247.924593 L 269.101893 229.049592 Z M 280.226893 286.549594 " transform="matrix(0.03125,0,0,0.03125,-2.268809,-0.00154947)"/>
<path style="fill-rule:nonzero;fill:rgb(91.372549%,70.588235%,38.431373%);fill-opacity:1;stroke-width:2.51121;stroke-linecap:butt;stroke-linejoin:round;stroke:rgb(30.980392%,26.666667%,34.509804%);stroke-opacity:1;stroke-miterlimit:4;" d="M 350.351896 108.299587 L 346.726896 118.424588 L 332.601895 113.174587 L 323.976895 136.799588 L 346.726896 177.17459 L 374.601897 203.299591 L 393.476898 151.424589 M 368.351897 126.174588 L 356.226896 121.799588 L 358.226896 116.174588 " transform="matrix(0.03125,0,0,0.03125,-2.268809,-0.00154947)"/>
<path style=" stroke:none;fill-rule:nonzero;fill:rgb(96.862745%,89.803922%,70.980392%);fill-opacity:1;" d="M 8.566406 5.535156 L 7.492188 8.484375 L 7.769531 8.585938 L 9.113281 7.242188 L 9.4375 6.351562 Z M 8.566406 5.535156 "/>
<path style=" stroke:none;fill-rule:nonzero;fill:rgb(75.686275%,82.352941%,67.058824%);fill-opacity:1;" d="M 6.210938 1.289062 C 6.199219 1.292969 6.191406 1.296875 6.179688 1.300781 L 5.792969 1.6875 Z M 4.742188 2.734375 L 3.824219 3.652344 L 4.214844 4.183594 Z M 4.742188 2.734375 "/>
<path style=" stroke:none;fill-rule:nonzero;fill:rgb(30.980392%,26.666667%,34.509804%);fill-opacity:1;" d="M 6.363281 1.265625 L 6.582031 1.347656 C 6.59375 1.351562 6.609375 1.347656 6.617188 1.339844 C 6.539062 1.292969 6.449219 1.269531 6.363281 1.265625 Z M 6.285156 1.273438 C 6.25 1.277344 6.214844 1.285156 6.179688 1.300781 L 5.765625 1.714844 C 5.78125 1.726562 5.804688 1.730469 5.820312 1.714844 Z M 4.769531 2.707031 L 4.675781 2.800781 L 4.203125 4.101562 L 3.855469 3.628906 C 3.855469 3.628906 3.851562 3.628906 3.851562 3.625 L 3.796875 3.683594 L 4.183594 4.207031 C 4.191406 4.21875 4.207031 4.226562 4.21875 4.222656 C 4.234375 4.222656 4.246094 4.210938 4.25 4.199219 L 4.777344 2.75 C 4.785156 2.734375 4.78125 2.71875 4.769531 2.707031 Z M 4.769531 2.707031 "/>
<path style=" stroke:none;fill-rule:nonzero;fill:rgb(30.980392%,26.666667%,34.509804%);fill-opacity:1;" d="M 4.675781 2.800781 L 3.664062 5.585938 C 3.65625 5.609375 3.664062 5.628906 3.683594 5.636719 L 5.457031 6.28125 C 5.476562 6.289062 5.5 6.277344 5.503906 6.257812 L 5.828125 5.375 C 5.835938 5.351562 5.824219 5.332031 5.804688 5.324219 L 5.25 5.121094 L 6.632812 1.324219 C 6.640625 1.304688 6.628906 1.28125 6.609375 1.273438 L 6.316406 1.167969 C 6.3125 1.167969 6.3125 1.167969 6.308594 1.167969 L 5.765625 1.714844 C 5.78125 1.726562 5.804688 1.730469 5.820312 1.714844 L 6.3125 1.25 L 6.546875 1.335938 L 5.164062 5.132812 C 5.15625 5.152344 5.167969 5.175781 5.1875 5.183594 L 5.742188 5.382812 L 5.445312 6.195312 L 3.75 5.578125 L 4.777344 2.75 C 4.785156 2.734375 4.78125 2.71875 4.769531 2.707031 Z M 4.675781 2.800781 "/>
<path style=" stroke:none;fill-rule:nonzero;fill:rgb(30.980392%,26.666667%,34.509804%);fill-opacity:1;" d="M 8.546875 5.5 C 8.539062 5.507812 8.53125 5.511719 8.53125 5.523438 L 7.457031 8.472656 C 7.449219 8.492188 7.460938 8.515625 7.480469 8.523438 L 7.738281 8.617188 L 7.796875 8.558594 C 7.792969 8.554688 7.789062 8.550781 7.785156 8.550781 L 7.542969 8.460938 L 8.582031 5.605469 L 9.390625 6.363281 L 9.078125 7.226562 C 9.074219 7.242188 9.078125 7.257812 9.089844 7.265625 L 9.179688 7.175781 L 9.476562 6.367188 C 9.480469 6.351562 9.476562 6.335938 9.464844 6.324219 L 8.59375 5.507812 C 8.582031 5.496094 8.5625 5.492188 8.546875 5.5 Z M 8.546875 5.5 "/>
<path style=" stroke:none;fill-rule:nonzero;fill:rgb(75.686275%,82.352941%,67.058824%);fill-opacity:1;" d="M 2.324219 5.152344 C 2.125 5.351562 2.125 5.667969 2.324219 5.863281 L 5.710938 9.25 L 5.898438 8.738281 L 5.710938 8.335938 L 5.121094 8.121094 L 4.933594 7.71875 L 5.46875 6.246094 L 3.699219 5.601562 L 4.214844 4.183594 L 3.824219 3.652344 Z M 2.324219 5.152344 "/>
<path style=" stroke:none;fill-rule:nonzero;fill:rgb(30.980392%,26.666667%,34.509804%);fill-opacity:1;" d="M 3.796875 3.683594 L 4.171875 4.191406 L 3.664062 5.585938 C 3.65625 5.609375 3.664062 5.628906 3.683594 5.636719 L 5.417969 6.269531 L 4.894531 7.707031 C 4.890625 7.714844 4.890625 7.726562 4.898438 7.738281 L 5.085938 8.140625 C 5.089844 8.148438 5.097656 8.15625 5.105469 8.160156 L 5.679688 8.367188 L 5.855469 8.742188 L 5.679688 9.222656 L 5.734375 9.277344 C 5.742188 9.273438 5.746094 9.269531 5.746094 9.265625 L 5.933594 8.753906 C 5.9375 8.742188 5.9375 8.730469 5.933594 8.722656 L 5.746094 8.320312 C 5.742188 8.3125 5.734375 8.304688 5.722656 8.300781 L 5.148438 8.089844 L 4.972656 7.71875 L 5.503906 6.257812 C 5.511719 6.238281 5.503906 6.214844 5.480469 6.207031 L 3.75 5.578125 L 4.25 4.199219 C 4.253906 4.1875 4.253906 4.171875 4.246094 4.160156 L 3.855469 3.628906 C 3.855469 3.628906 3.851562 3.628906 3.851562 3.625 Z M 3.796875 3.683594 "/>
<path style=" stroke:none;fill-rule:nonzero;fill:rgb(30.980392%,26.666667%,34.509804%);fill-opacity:1;" d="M 6.554688 1.308594 L 5.914062 3.066406 C 5.90625 3.085938 5.917969 3.109375 5.9375 3.117188 L 6.824219 3.4375 C 6.84375 3.445312 6.867188 3.4375 6.875 3.414062 L 7.363281 2.066406 L 7.304688 2.007812 L 6.8125 3.351562 L 6.003906 3.058594 L 6.625 1.34375 C 6.601562 1.332031 6.578125 1.320312 6.554688 1.308594 Z M 6.554688 1.308594 "/>
<path style="fill:none;stroke-width:6;stroke-linecap:round;stroke-linejoin:round;stroke:rgb(30.980392%,26.666667%,34.509804%);stroke-opacity:1;stroke-miterlimit:4;" d="M -14.016767 218.691494 L 155.512091 218.691494 C 164.350926 218.691494 171.598771 225.939339 171.687159 234.866563 L 171.598771 404.307032 C 171.598771 413.322643 164.439314 420.4821 155.423702 420.4821 L -14.016767 420.570488 C -22.94399 420.4821 -30.191835 413.234255 -30.191835 404.39542 L -30.191835 234.866563 C -30.191835 225.850951 -23.032379 218.691494 -14.016767 218.691494 Z M -14.016767 218.691494 " transform="matrix(0.0220971,-0.0220971,0.0220971,0.0220971,-2.268809,-0.00154947)"/>
<path style="fill:none;stroke-width:3.02745;stroke-linecap:round;stroke-linejoin:miter;stroke:rgb(30.980392%,26.666667%,34.509804%);stroke-opacity:1;stroke-miterlimit:4;" d="M 192.97689 198.799591 L 229.351891 198.799591 " transform="matrix(0.03125,0,0,0.03125,-2.268809,-0.00154947)"/>
<path style="fill:none;stroke-width:3.02745;stroke-linecap:round;stroke-linejoin:miter;stroke:rgb(30.980392%,26.666667%,34.509804%);stroke-opacity:1;stroke-miterlimit:4;" d="M 192.97689 207.924591 L 229.351891 207.924591 " transform="matrix(0.03125,0,0,0.03125,-2.268809,-0.00154947)"/>
<path style="fill:none;stroke-width:3.02745;stroke-linecap:round;stroke-linejoin:miter;stroke:rgb(30.980392%,26.666667%,34.509804%);stroke-opacity:1;stroke-miterlimit:4;" d="M 192.97689 217.049592 L 229.351891 217.049592 " transform="matrix(0.03125,0,0,0.03125,-2.268809,-0.00154947)"/>
<path style="fill:none;stroke-width:3.02745;stroke-linecap:round;stroke-linejoin:miter;stroke:rgb(30.980392%,26.666667%,34.509804%);stroke-opacity:1;stroke-miterlimit:4;" d="M 192.97689 226.049592 L 229.351891 226.049592 " transform="matrix(0.03125,0,0,0.03125,-2.268809,-0.00154947)"/>
<path style=" stroke:none;fill-rule:nonzero;fill:rgb(30.980392%,26.666667%,34.509804%);fill-opacity:1;" d="M 12.644531 3.675781 C 12.617188 3.675781 12.597656 3.671875 12.582031 3.65625 C 12.570312 3.640625 12.5625 3.617188 12.5625 3.59375 L 12.5625 1.871094 C 12.5625 1.839844 12.570312 1.820312 12.582031 1.804688 C 12.597656 1.792969 12.617188 1.785156 12.640625 1.785156 C 12.667969 1.785156 12.6875 1.792969 12.703125 1.804688 C 12.71875 1.820312 12.722656 1.839844 12.722656 1.871094 L 12.722656 3.53125 L 13.640625 3.53125 C 13.667969 3.53125 13.6875 3.539062 13.699219 3.550781 C 13.714844 3.5625 13.722656 3.578125 13.722656 3.601562 C 13.722656 3.628906 13.714844 3.648438 13.699219 3.660156 C 13.6875 3.671875 13.667969 3.675781 13.640625 3.675781 Z M 12.644531 3.675781 "/>
<path style=" stroke:none;fill-rule:nonzero;fill:rgb(30.980392%,26.666667%,34.509804%);fill-opacity:1;" d="M 12.355469 6.261719 C 12.335938 6.261719 12.316406 6.257812 12.300781 6.246094 C 12.289062 6.238281 12.28125 6.226562 12.28125 6.207031 C 12.28125 6.1875 12.285156 6.167969 12.292969 6.148438 L 13.042969 4.425781 C 13.054688 4.398438 13.070312 4.378906 13.085938 4.371094 C 13.105469 4.355469 13.125 4.351562 13.140625 4.351562 C 13.164062 4.351562 13.179688 4.355469 13.195312 4.371094 C 13.214844 4.378906 13.230469 4.398438 13.238281 4.425781 L 13.988281 6.148438 C 14 6.167969 14.003906 6.1875 14.003906 6.207031 C 14.003906 6.226562 13.996094 6.238281 13.984375 6.246094 C 13.972656 6.257812 13.957031 6.261719 13.933594 6.261719 C 13.910156 6.261719 13.886719 6.257812 13.871094 6.246094 C 13.859375 6.230469 13.84375 6.210938 13.835938 6.1875 L 13.628906 5.707031 L 13.71875 5.746094 L 12.5625 5.746094 L 12.652344 5.707031 L 12.449219 6.1875 C 12.4375 6.214844 12.421875 6.234375 12.40625 6.246094 C 12.394531 6.257812 12.375 6.261719 12.355469 6.261719 Z M 13.136719 4.570312 L 12.683594 5.636719 L 12.625 5.605469 L 13.65625 5.605469 L 13.601562 5.636719 L 13.144531 4.570312 Z M 13.136719 4.570312 "/>
<path style=" stroke:none;fill-rule:nonzero;fill:rgb(30.980392%,26.666667%,34.509804%);fill-opacity:1;" d="M 12.332031 8.839844 C 12.308594 8.839844 12.292969 8.832031 12.277344 8.816406 C 12.265625 8.804688 12.257812 8.785156 12.257812 8.757812 L 12.257812 7.007812 C 12.257812 6.980469 12.265625 6.960938 12.277344 6.949219 C 12.292969 6.933594 12.308594 6.925781 12.332031 6.925781 C 12.355469 6.925781 12.371094 6.933594 12.382812 6.941406 C 12.394531 6.949219 12.40625 6.964844 12.417969 6.984375 L 13.179688 8.429688 L 13.105469 8.429688 L 13.863281 6.984375 C 13.875 6.964844 13.886719 6.949219 13.898438 6.941406 C 13.910156 6.933594 13.929688 6.925781 13.953125 6.925781 C 13.972656 6.925781 13.988281 6.933594 14.003906 6.949219 C 14.015625 6.960938 14.023438 6.980469 14.023438 7.007812 L 14.023438 8.757812 C 14.023438 8.785156 14.019531 8.804688 14.003906 8.816406 C 13.992188 8.832031 13.972656 8.839844 13.949219 8.839844 C 13.925781 8.839844 13.90625 8.832031 13.890625 8.816406 C 13.878906 8.804688 13.871094 8.785156 13.871094 8.757812 L 13.871094 7.140625 L 13.9375 7.140625 L 13.222656 8.496094 C 13.210938 8.511719 13.203125 8.527344 13.191406 8.535156 C 13.179688 8.542969 13.167969 8.546875 13.148438 8.546875 C 13.125 8.546875 13.109375 8.542969 13.097656 8.535156 C 13.085938 8.523438 13.074219 8.511719 13.066406 8.496094 L 12.34375 7.136719 L 12.40625 7.136719 L 12.40625 8.757812 C 12.40625 8.785156 12.402344 8.804688 12.390625 8.816406 C 12.375 8.832031 12.359375 8.839844 12.332031 8.839844 Z M 12.332031 8.839844 "/>
<path style=" stroke:none;fill-rule:nonzero;fill:rgb(30.980392%,26.666667%,34.509804%);fill-opacity:1;" d="M 12.558594 11.40625 C 12.53125 11.40625 12.511719 11.398438 12.5 11.386719 C 12.484375 11.371094 12.476562 11.347656 12.476562 11.320312 L 12.476562 9.597656 C 12.476562 9.566406 12.484375 9.546875 12.5 9.53125 C 12.515625 9.519531 12.535156 9.511719 12.558594 9.511719 L 13.1875 9.511719 C 13.386719 9.511719 13.539062 9.558594 13.644531 9.65625 C 13.753906 9.75 13.804688 9.886719 13.804688 10.066406 C 13.804688 10.242188 13.753906 10.378906 13.644531 10.476562 C 13.539062 10.574219 13.386719 10.621094 13.1875 10.621094 L 12.640625 10.621094 L 12.640625 11.320312 C 12.640625 11.347656 12.632812 11.371094 12.617188 11.386719 C 12.605469 11.398438 12.585938 11.40625 12.558594 11.40625 Z M 12.640625 10.476562 L 13.171875 10.476562 C 13.328125 10.476562 13.445312 10.441406 13.523438 10.371094 C 13.601562 10.304688 13.640625 10.199219 13.640625 10.066406 C 13.640625 9.929688 13.601562 9.828125 13.523438 9.757812 C 13.445312 9.6875 13.328125 9.652344 13.171875 9.652344 L 12.640625 9.652344 Z M 12.640625 10.476562 "/>
<path style=" stroke:none;fill-rule:nonzero;fill:rgb(30.980392%,26.666667%,34.509804%);fill-opacity:1;" d="M 12.355469 13.992188 C 12.335938 13.992188 12.316406 13.984375 12.300781 13.976562 C 12.289062 13.964844 12.28125 13.953125 12.28125 13.933594 C 12.28125 13.917969 12.285156 13.898438 12.292969 13.875 L 13.042969 12.152344 C 13.054688 12.128906 13.070312 12.109375 13.085938 12.097656 C 13.105469 12.085938 13.125 12.078125 13.140625 12.078125 C 13.164062 12.078125 13.179688 12.085938 13.195312 12.097656 C 13.214844 12.109375 13.230469 12.128906 13.238281 12.152344 L 13.988281 13.875 C 14 13.898438 14.003906 13.917969 14.003906 13.933594 C 14.003906 13.953125 13.996094 13.964844 13.984375 13.976562 C 13.972656 13.984375 13.957031 13.992188 13.933594 13.992188 C 13.910156 13.992188 13.886719 13.984375 13.871094 13.972656 C 13.859375 13.957031 13.84375 13.941406 13.835938 13.917969 L 13.628906 13.433594 L 13.71875 13.472656 L 12.5625 13.472656 L 12.652344 13.433594 L 12.449219 13.917969 C 12.4375 13.945312 12.421875 13.964844 12.40625 13.976562 C 12.394531 13.984375 12.375 13.992188 12.355469 13.992188 Z M 13.136719 12.296875 L 12.683594 13.363281 L 12.625 13.332031 L 13.65625 13.332031 L 13.601562 13.363281 L 13.144531 12.296875 Z M 13.136719 12.296875 "/>
</g>
</svg>
