<?xml version="1.0" encoding="UTF-8" standalone="no"?>
<!-- Created with Inkscape (http://www.inkscape.org/) -->

<svg
   width="512"
   height="512"
   viewBox="0 0 512 512.00002"
   version="1.1"
   id="svg5"
   xml:space="preserve"
   inkscape:version="1.2.2 (732a01da63, 2022-12-09)"
   sodipodi:docname="lampa4.svg"
   inkscape:export-filename="lampa4.png"
   inkscape:export-xdpi="96"
   inkscape:export-ydpi="96"
   xmlns:inkscape="http://www.inkscape.org/namespaces/inkscape"
   xmlns:sodipodi="http://sodipodi.sourceforge.net/DTD/sodipodi-0.dtd"
   xmlns:xlink="http://www.w3.org/1999/xlink"
   xmlns="http://www.w3.org/2000/svg"
   xmlns:svg="http://www.w3.org/2000/svg"><sodipodi:namedview
     id="namedview7"
     pagecolor="#ffffff"
     bordercolor="#666666"
     borderopacity="1.0"
     inkscape:showpageshadow="2"
     inkscape:pageopacity="0.0"
     inkscape:pagecheckerboard="0"
     inkscape:deskcolor="#d1d1d1"
     inkscape:document-units="px"
     showgrid="false"
     inkscape:zoom="1.3266287"
     inkscape:cx="209.55374"
     inkscape:cy="200.13136"
     inkscape:window-width="1718"
     inkscape:window-height="1080"
     inkscape:window-x="1920"
     inkscape:window-y="0"
     inkscape:window-maximized="0"
     inkscape:current-layer="layer1"
     showguides="true"><inkscape:grid
       type="xygrid"
       id="grid132"
       empspacing="2" /></sodipodi:namedview><defs
     id="defs2"><pattern
   inkscape:collect="always"
   xlink:href="#pattern71279"
   id="pattern71287"
   patternTransform="matrix(0,0.24257358,-0.2425736,0,309.82897,-155.80505)" />
	
	
	
<pattern
   patternUnits="userSpaceOnUse"
   width="64"
   height="64"
   patternTransform="translate(-150.75807,-3.7689519)"
   id="pattern63212"><g
     id="g63210"
     transform="translate(-221.24193,3.7689519)"><rect
       style="fill:#34bead;fill-opacity:0.00632911;stroke:none;stroke-width:1.31849;stroke-linecap:round;stroke-linejoin:round;stroke-dasharray:none;stroke-opacity:1"
       id="rect63206"
       width="64"
       height="64"
       x="221.24193"
       y="-3.7689519"
       rx="0"
       ry="0" /><circle
       style="fill:#000000;fill-opacity:1;stroke:none;stroke-width:0.818811;stroke-linecap:round;stroke-linejoin:round;stroke-dasharray:none;stroke-opacity:1"
       id="path63152"
       cx="253.24193"
       cy="28.231049"
       r="8" /></g></pattern><pattern
   patternUnits="userSpaceOnUse"
   width="64"
   height="64"
   patternTransform="translate(-237.33591,0.21154138)"
   id="pattern71279"><g
     id="g71277"
     transform="translate(237.33591,-0.21154138)"><rect
       style="fill:none;stroke:none"
       width="64"
       height="64"
       x="-237.33591"
       y="0.21154138"
       id="rect70917" /><rect
       style="fill:#34bead;fill-opacity:0.00632911;stroke:none;stroke-width:1.31849;stroke-linecap:round;stroke-linejoin:round;stroke-dasharray:none;stroke-opacity:1"
       id="rect70921"
       width="64"
       height="64"
       x="-237.33591"
       y="0.21154141"
       rx="0"
       ry="0" /><circle
       style="fill:#4f4458;fill-opacity:1;stroke:none;stroke-width:0.818811;stroke-linecap:round;stroke-linejoin:round;stroke-dasharray:none;stroke-opacity:1"
       id="circle70923"
       cx="-205.33591"
       cy="32.21154"
       r="8" /></g></pattern>
	
	

	
	
	
	

	
	

	
	
</defs><g
     inkscape:label="Layer 1"
     inkscape:groupmode="layer"
     id="layer1"><rect
       style="fill:#ffffff;fill-opacity:1;stroke:none;stroke-width:3;stroke-linecap:round;stroke-linejoin:round;stroke-dasharray:none;stroke-opacity:1"
       id="rect74589"
       width="512"
       height="512"
       x="0"
       y="0"
       ry="19.598551" /><rect
       style="stroke:none;fill:url(#pattern71279)"
       width="64"
       height="64"
       x="-237.33591"
       y="0.21154138"
       id="rect71285" /><g
       id="g1609"
       transform="translate(-163.16784,-318.74885)"><rect
         style="fill:#c8d853;fill-opacity:1;stroke-width:8.52788;stroke-linecap:round;stroke-linejoin:round"
         id="rect981-2"
         width="201.80725"
         height="201.80725"
         x="621.23993"
         y="102.8374"
         ry="16.144579"
         transform="rotate(45)" /><path
         id="path52644"
         style="fill:#f0b069;fill-opacity:1;stroke:none;stroke-width:2.00897px;stroke-linecap:butt;stroke-linejoin:miter;stroke-opacity:1"
         d="m 366.56641,518.67188 c -4.12686,0 -8.25381,1.58192 -11.41602,4.74414 l -77.66406,77.66406 20.33594,20.33594 59.66211,-14.20704 8.52343,-48.29882 22.72852,-22.72852 -16.44141,-16.44141 c -1.8438,-0.70222 -3.78377,-1.06835 -5.72851,-1.06835 z" /><path
         id="path48280"
         style="color:#000000;fill:#4f4458;fill-opacity:1;stroke-width:2.00897;stroke-linecap:round;stroke-linejoin:round;-inkscape-stroke:none"
         d="m 388.02734,535.47266 -22.72851,22.72851 a 1.0045847,1.0045847 0 0 0 -0.28125,0.53516 l -8.40625,47.64844 -58.47656,13.92382 -19.93946,-19.9375 -1.41797,1.41797 20.33399,20.33594 a 1.0045847,1.0045847 0 0 0 0.94336,0.26758 l 59.66406,-14.20703 a 1.0045847,1.0045847 0 0 0 0.75586,-0.80078 l 8.46875,-47.98829 22.50391,-22.5039 z" /><path
         id="path65688"
         style="fill:#34bead;fill-opacity:1;stroke:none;stroke-width:2.00897px;stroke-linecap:butt;stroke-linejoin:miter;stroke-opacity:1"
         d="m 388.73633,536.18164 -22.72852,22.72852 -8.52343,48.29882 -25.76954,6.13868 8.72266,90.45898 28.41211,28.41211 42.61719,-19.88867 14.20508,14.20703 27.91992,-16.16406 44.25781,-44.25782 c 4.65139,-4.65139 5.86821,-11.38694 3.67773,-17.14257 z" /><path
         id="path57211"
         style="fill:#b67a7f;fill-opacity:1;stroke:none;stroke-width:2.00897px;stroke-linecap:round;stroke-linejoin:round;stroke-opacity:1"
         d="m 340.4375,703.80664 -19.88672,2.8418 -22.36719,22.36718 56.9668,56.9668 c 6.32443,6.32443 16.50761,6.32443 22.83203,0 l 75.60938,-75.60937 -27.91992,16.16406 -14.20508,-14.20703 -42.61719,19.88867 z" /><path
         id="path50462"
         style="color:#000000;fill:#4f4458;fill-opacity:1;stroke-width:2.00897;stroke-linecap:round;stroke-linejoin:round;-inkscape-stroke:none"
         d="m 388.02692,535.47179 -22.72888,22.72888 a 1.0045847,1.0045847 0 0 0 -0.28029,0.53542 l -8.40681,47.64965 -25.12883,5.98464 a 1.0045847,1.0045847 0 0 0 -0.76577,1.07096 l 8.62876,89.50609 -18.93611,2.70516 a 1.0045847,1.0045847 0 0 0 -0.56872,0.28583 l -22.72889,22.72889 1.42056,1.42055 22.49304,-22.49304 19.55484,-2.79118 a 1.0045847,1.0045847 0 0 0 0.86015,-1.09311 l -8.63986,-89.58933 24.91797,-5.93469 a 1.0045847,1.0045847 0 0 0 0.75749,-0.80181 l 8.46776,-47.98821 22.50415,-22.50415 z" /><path
         id="path52642"
         style="color:#000000;fill:#4f4458;fill-opacity:1;stroke-width:2.00897;stroke-linecap:round;stroke-linejoin:round;-inkscape-stroke:none"
         d="m 340.4375,702.80273 a 1.0044843,1.0044843 0 0 0 -0.70898,0.29493 1.0044843,1.0044843 0 0 0 0,1.41992 l 28.41015,28.41211 a 1.0045847,1.0045847 0 0 0 1.13867,0.19922 l 41.97461,-19.5918 13.70899,13.70898 a 1.0045847,1.0045847 0 0 0 1.21289,0.15821 l 24.66601,-14.2793 5.50977,-5.50977 -30.51367,17.66407 -13.66016,-13.65821 a 1.0045847,1.0045847 0 0 0 -1.13672,-0.20117 l -41.97656,19.5918 -27.91406,-27.91406 a 1.0044843,1.0044843 0 0 0 -0.71094,-0.29493 z" /><path
         id="path66422"
         style="fill:url(#pattern71287);fill-opacity:1;stroke:none;stroke-width:2.00897px;stroke-linecap:butt;stroke-linejoin:miter;stroke-opacity:1"
         d="m 366.56641,518.67188 c -4.12686,0 -8.25381,1.58192 -11.41602,4.74414 l -77.66406,77.66406 20.33594,20.33594 59.66211,-14.20704 -25.76954,6.13868 8.72266,90.46093 -19.88672,2.83985 -22.36719,22.36718 56.9668,56.9668 c 6.32443,6.32443 16.50761,6.32443 22.83203,0 L 497.84961,666.11523 c 4.65139,-4.65139 5.86821,-11.38694 3.67773,-17.14257 L 388.73633,536.18359 372.29102,519.73828 c -1.8426,-0.7012 -3.78129,-1.0664 -5.72461,-1.0664 z" /><g
         id="g71296"
         transform="matrix(1.1232791,0,0,1.1232791,373.29543,220.42946)"><path
           style="fill:#d25656;fill-opacity:1;stroke:#4f4458;stroke-width:1.25;stroke-linecap:round;stroke-linejoin:round;stroke-dasharray:none;stroke-opacity:1"
           d="m -25.73191,313.22352 c 0,6.40035 -11.56428,23.45585 -11.56428,23.45585 0,0 -11.56428,-17.0555 -11.56428,-23.45585 0,-6.40036 5.16392,-11.56428 11.56428,-11.56428 6.40035,0 11.56428,5.20029 11.56428,11.56428 z"
           id="path66793" /><circle
           style="fill:#ffffff;stroke-width:0.0909136"
           cx="-37.296173"
           cy="313.40533"
           r="6.2185273"
           id="circle66795" /><circle
           style="fill:#d25656;fill-opacity:1;stroke-width:0.0909136"
           cx="-37.296173"
           cy="313.40533"
           r="3.2729089"
           id="circle66797" /></g><g
         id="g71304"
         transform="matrix(1.3422004,0,0,1.3422004,434.54058,276.66918)"><g
           id="g72777"
           transform="matrix(0.81293099,0,0,0.81293099,-3.2771665,93.097359)"><path
             style="fill:#d25656;fill-opacity:1;stroke:#4f4458;stroke-width:1.25;stroke-linecap:round;stroke-linejoin:round;stroke-dasharray:none;stroke-opacity:1"
             d="m -25.73191,313.22352 c 0,6.40035 -11.56428,23.45585 -11.56428,23.45585 0,0 -11.56428,-17.0555 -11.56428,-23.45585 0,-6.40036 5.16392,-11.56428 11.56428,-11.56428 6.40035,0 11.56428,5.20029 11.56428,11.56428 z"
             id="path71298" /><circle
             style="fill:#ffffff;stroke-width:0.0909136"
             cx="-37.296173"
             cy="313.40533"
             r="6.2185273"
             id="circle71300" /><circle
             style="fill:#d25656;fill-opacity:1;stroke-width:0.0909136"
             cx="-37.296173"
             cy="313.40533"
             r="3.2729089"
             id="circle71302" /></g></g><g
         id="g71312"
         transform="matrix(1.1970866,0,0,1.1970866,341.75815,272.41577)"><path
           style="fill:#d25656;fill-opacity:1;stroke:#4f4458;stroke-width:1.25;stroke-linecap:round;stroke-linejoin:round;stroke-dasharray:none;stroke-opacity:1"
           d="m -25.73191,313.22352 c 0,6.40035 -11.56428,23.45585 -11.56428,23.45585 0,0 -11.56428,-17.0555 -11.56428,-23.45585 0,-6.40036 5.16392,-11.56428 11.56428,-11.56428 6.40035,0 11.56428,5.20029 11.56428,11.56428 z"
           id="path71306" /><circle
           style="fill:#ffffff;stroke-width:0.0909136"
           cx="-37.296173"
           cy="313.40533"
           r="6.2185273"
           id="circle71308" /><circle
           style="fill:#d25656;fill-opacity:1;stroke-width:0.0909136"
           cx="-37.296173"
           cy="313.40533"
           r="3.2729089"
           id="circle71310" /></g><g
         id="g72046"
         transform="matrix(2.0089686,0,0,2.0089686,484.45269,-3.08951)"><path
           style="fill:#d25656;fill-opacity:1;stroke:#4f4458;stroke-width:1.25;stroke-linecap:round;stroke-linejoin:round;stroke-dasharray:none;stroke-opacity:1"
           d="m -25.73191,313.22352 c 0,6.40035 -11.56428,23.45585 -11.56428,23.45585 0,0 -11.56428,-17.0555 -11.56428,-23.45585 0,-6.40036 5.16392,-11.56428 11.56428,-11.56428 6.40035,0 11.56428,5.20029 11.56428,11.56428 z"
           id="path72040" /><circle
           style="fill:#ffffff;stroke-width:0.0909136"
           cx="-37.296173"
           cy="313.40533"
           r="6.2185273"
           id="circle72042" /><circle
           style="fill:#d25656;fill-opacity:1;stroke-width:0.0909136"
           cx="-37.296173"
           cy="313.40533"
           r="3.2729089"
           id="circle72044" /></g><rect
         style="fill:none;fill-opacity:1;stroke:#4f4458;stroke-width:6.2;stroke-linecap:round;stroke-linejoin:round;stroke-dasharray:none;stroke-opacity:1"
         id="rect73588"
         width="201.80725"
         height="201.80725"
         x="621.23993"
         y="102.8374"
         ry="16.144579"
         transform="rotate(45)" /></g><g
       id="g1404"
       transform="translate(-80.53026,5.980737)"><path
         id="rect986"
         style="fill:#84d5ea;fill-opacity:1;stroke-width:8.52787;stroke-linecap:round;stroke-linejoin:round"
         d="M 149.38341,241.81552 275.7742,115.42473 c 4.51745,-4.51745 13.24575,-3.06274 19.57017,3.26168 l 119.86726,119.86726 c 6.32443,6.32443 7.77914,15.05272 3.26169,19.57017 L 292.08253,384.51463 c -4.51745,4.51745 -13.24575,3.06274 -19.57017,-3.26168 L 152.6451,261.38569 c -6.32443,-6.32443 -7.77914,-15.05272 -3.26169,-19.57017 z"
         sodipodi:nodetypes="sssssssss" /><path
         id="path1054"
         style="fill:#34bead;fill-opacity:1;stroke:none;stroke-width:2.00897px;stroke-linecap:butt;stroke-linejoin:miter;stroke-opacity:1"
         d="m 237.96484,153.23242 -88.58203,88.58399 c -2.22985,2.22985 -2.99114,5.48835 -2.44336,8.97461 6.66284,3.57146 13.74613,6.38632 21.06055,7.9707 11.10685,2.40584 23.07415,2.77822 34.09375,0 13.55853,-3.41834 28.35038,-8.85023 36.93359,-19.88867 9.58753,-12.33003 11.78854,-29.84387 11.36524,-45.45703 -0.35991,-13.27531 -7.80752,-25.38836 -11.74219,-38.07227 -0.21915,-0.70647 -0.46214,-1.40605 -0.68555,-2.11133 z" /><path
         id="path3337"
         style="fill:#c8d853;fill-opacity:1;stroke:none;stroke-width:2.00897px;stroke-linecap:butt;stroke-linejoin:miter;stroke-opacity:1"
         d="m 224.94336,166.25586 -73.49805,73.49805 c 7.26617,1.91514 14.8922,3.13094 22.23633,1.96093 11.30056,-1.80032 22.61398,-6.69979 31.25195,-14.20507 9.32096,-8.09869 16.78611,-19.30027 19.88868,-31.25196 2.52341,-9.72062 1.66491,-19.87009 0.12109,-30.00195 z" /><path
         id="path4793"
         style="fill:#34bead;fill-opacity:1;stroke:none;stroke-width:2.00897px;stroke-linecap:butt;stroke-linejoin:miter;stroke-opacity:1"
         d="m 282.2832,112.80469 c -2.52952,0.0725 -4.81572,0.9251 -6.50976,2.61914 l -7.55274,7.55273 c 0.80352,3.91021 1.54062,7.65821 2.0586,10.77539 4.21721,25.37932 7.10072,51.02302 8.52343,76.71094 0.52371,9.45585 -3.62414,19.66069 0,28.41016 6.15039,14.84832 19.71877,26.90625 34.09375,34.09375 11.97915,5.98957 26.38745,6.05323 39.7754,5.68164 19.17051,-0.53211 39.49572,-2.23308 56.45312,-11.17774 l 7.34375,-7.34375 c 4.95712,-6.317 4.53332,-15.42762 -1.29297,-21.2539 L 292.80273,116.5 c -3.39333,-2.5111 -7.16948,-3.79134 -10.51953,-3.69531 z" /><path
         id="path4795"
         style="fill:#c8d853;fill-opacity:1;stroke:none;stroke-width:2.00897px;stroke-linecap:butt;stroke-linejoin:miter;stroke-opacity:1"
         d="m 282.2832,112.80469 c -2.52952,0.0725 -4.81572,0.9251 -6.50976,2.61914 l -0.0488,0.0488 c 1.16733,3.56796 2.26307,7.00158 3.07812,9.75586 7.49559,25.32952 9.93366,52.24327 19.88868,76.71093 5.75493,14.14456 11.63522,29.28128 22.72851,39.77539 9.23017,8.73163 21.72784,14.12768 34.09375,17.04688 20.01368,4.72457 42.65101,7.86771 61.74414,0.2832 4.11087,-6.24132 3.41855,-14.67131 -2.08203,-20.17187 L 292.80273,116.5 c -3.39333,-2.5111 -7.16948,-3.79134 -10.51953,-3.69531 z" /><path
         id="path5523"
         style="fill:#f0b069;fill-opacity:1;stroke:none;stroke-width:2.00897px;stroke-linecap:butt;stroke-linejoin:miter;stroke-opacity:1"
         d="m 285.23438,113.08203 c 3.20739,6.91414 7.61049,16.47491 10.61523,23.51172 8.01102,18.76097 12.45762,39.19676 22.72851,56.82227 6.10622,10.47865 13.41357,20.64554 22.72852,28.4121 10.73954,8.95437 23.95073,14.69896 36.93555,19.88672 10.02722,4.00613 20.54962,7.0902 31.25195,8.52344 2.75036,0.36832 6.87129,0.37084 10.37695,0.2832 0.0743,-4.20252 -1.47472,-8.42785 -4.69531,-11.64843 L 292.80273,116.5 c -2.42672,-1.7958 -5.04572,-2.93587 -7.56835,-3.41797 z" /><path
         id="path5525"
         style="fill:#f9786f;fill-opacity:1;stroke:none;stroke-width:2.00897px;stroke-linecap:butt;stroke-linejoin:miter;stroke-opacity:1"
         d="m 290.16743,113.86498 c 0,0 9.32903,17.12674 14.20556,25.56999 5.52365,9.5637 11.05914,19.13076 17.04666,28.41111 8.11798,12.58243 15.35441,25.98633 25.57,36.93444 8.27399,8.86728 18.07605,16.38267 28.41111,22.72888 9.75139,5.98782 20.60096,10.02292 31.25221,14.20555 3.64757,1.43237 8.7676,3.08154 12.59911,4.28665 -0.71461,-2.60118 -2.02444,-5.07642 -4.07578,-7.12775 z" /><path
         id="path5527"
         style="fill:#34bead;fill-opacity:1;stroke:none;stroke-width:2.00897px;stroke-linecap:butt;stroke-linejoin:miter;stroke-opacity:1"
         d="m 325.96987,301.57805 c -1.25337,-1.34076 -2.7525,-2.38838 -4.55022,-3.04088 -13.1438,-4.77068 -23.37589,16.46943 -36.93443,19.88777 -7.34641,1.85215 -15.99229,3.46677 -22.72889,0 -7.2438,-3.72778 -12.36773,-11.95107 -14.20556,-19.88777 -2.59909,-11.22419 14.52968,-26.71361 5.68223,-34.09333 -19.32368,-16.11801 -71.02777,25.57 -71.02777,25.57 l 90.91554,90.91554 c 6.2959,6.2959 16.43298,6.2959 22.72888,0 l 31.25222,-31.25222 c 3.84771,-6.79579 6.21102,-14.93735 5.68223,-22.72889 -0.56116,-8.26839 -1.38296,-19.56031 -6.81423,-25.37022 z" /><path
         id="path5529"
         style="fill:#c8d853;fill-opacity:1;stroke:none;stroke-width:2.00897px;stroke-linecap:butt;stroke-linejoin:miter;stroke-opacity:1"
         d="m 319.98244,328.36883 c -2.01526,-2.02375 -4.49724,-3.57416 -7.08612,-4.26167 -10.43614,-2.77146 -20.46075,8.15166 -31.25222,8.52334 -9.65219,0.33244 -19.89596,-1.12506 -28.41111,-5.68222 -7.08503,-3.79179 -14.25864,-9.50995 -17.04666,-17.04666 -4.28402,-11.58086 12.69124,-29.48838 2.84112,-36.93445 -15.29713,-11.56364 -53.98111,19.88778 -53.98111,19.88778 l 88.07443,88.07443 c 6.2959,6.2959 16.43298,6.2959 22.72888,0 l 22.72889,-22.72889 c 3.84772,-6.7958 7.76683,-15.20278 5.68223,-22.72889 -0.71502,-2.58142 -2.26319,-5.0789 -4.27833,-7.10277 z" /><path
         id="path5531"
         style="fill:#f0b069;fill-opacity:1;stroke:none;stroke-width:2.00897px;stroke-linecap:butt;stroke-linejoin:miter;stroke-opacity:1"
         d="m 305.77689,342.57439 c -2.01526,-2.02375 -4.49725,-3.57415 -7.08612,-4.26167 -10.43614,-2.77147 -20.46075,8.15165 -31.25222,8.52333 -9.65219,0.33244 -19.89596,-1.12505 -28.41111,-5.68222 -7.08503,-3.79179 -14.25865,-9.50994 -17.04666,-17.04667 -4.28403,-11.58084 12.57374,-29.33541 2.84111,-36.93443 -9.44205,-7.37213 -34.09333,11.36444 -34.09333,11.36444 l 82.39221,82.39221 c 6.2959,6.2959 16.43298,6.2959 22.72888,0 l 8.52333,-8.52333 c 3.84772,-6.7958 7.76684,-15.20278 5.68223,-22.72889 -0.71501,-2.58142 -2.26317,-5.07891 -4.27832,-7.10277 z" /><path
         id="path41409"
         style="color:#000000;fill:#4f4458;stroke-width:2.00897;stroke-linecap:round;-inkscape-stroke:none"
         d="m 306.48994,341.86688 c -2.12551,-2.134 -4.74416,-3.77969 -7.54114,-4.52247 -5.61158,-1.49023 -10.98291,0.69589 -16.17824,3.14353 -5.19534,2.44765 -10.29721,5.16918 -15.36529,5.34374 -9.52682,0.32812 -19.6052,-1.12187 -27.90338,-5.56293 -6.96331,-3.72665 -13.92692,-9.34526 -16.57771,-16.51125 -1.93531,-5.23165 0.98828,-12.39199 3.46537,-19.26905 1.23855,-3.43851 2.33927,-6.79945 2.49429,-9.91891 0.15506,-3.11947 -0.74961,-6.08454 -3.44318,-8.18762 -2.69027,-2.10051 -6.3349,-2.27838 -10.12422,-1.52876 -3.78932,0.74962 -7.81865,2.43569 -11.53923,4.34213 -7.44118,3.81288 -13.6562,8.53999 -13.6562,8.53999 a 1.0044843,1.0044843 0 0 0 -0.0722,0.12216 l 1.39836,1.39837 c 0.30815,-0.23286 6.19015,-4.65839 13.24557,-8.27363 3.62248,-1.85618 7.52373,-3.46892 11.01208,-4.159 3.48834,-0.69008 6.46766,-0.44521 8.49837,1.14032 2.17272,1.69642 2.80925,3.8004 2.67464,6.50903 -0.13462,2.70863 -1.15673,5.9359 -2.38055,9.33349 -2.44761,6.79518 -5.80854,14.30161 -3.45982,20.65078 2.92516,7.90748 10.30884,13.72522 17.51561,17.58208 8.73208,4.67327 19.14131,6.13829 28.91884,5.80152 5.72335,-0.19712 11.03218,-3.1212 16.15606,-5.53517 5.12383,-2.41397 9.98029,-4.30546 14.80484,-3.02424 2.38078,0.63225 4.726,2.0875 6.63111,4.00087 1.90498,1.91347 3.36312,4.28183 4.02305,6.66441 1.94677,7.02849 -1.77109,15.22193 -5.58788,21.96311 a 1.0044843,1.0044843 0 0 0 0.21086,1.15975 l 3.17129,-3.17129 c 3.27747,-6.27248 6.05127,-13.59811 4.14235,-20.48984 -0.77008,-2.78026 -2.40841,-5.40678 -4.53357,-7.54115 z" /><path
         id="path41411"
         style="color:#000000;fill:#4f4458;stroke-width:2.00897;stroke-linecap:round;-inkscape-stroke:none"
         d="m 320.6955,327.66132 c -2.12546,-2.13394 -4.74414,-3.77968 -7.54115,-4.52246 -5.61157,-1.49025 -10.98291,0.69589 -16.17824,3.14353 -5.19534,2.44765 -10.29721,5.16917 -15.36529,5.34373 -9.52681,0.32812 -19.6052,-1.12186 -27.90337,-5.56292 -6.96332,-3.72664 -13.92695,-9.34525 -16.57772,-16.51125 -1.93378,-5.2275 1.01501,-12.43071 3.50701,-19.32731 1.24598,-3.4483 2.35332,-6.81224 2.50261,-9.92725 0.14928,-3.11498 -0.77648,-6.07012 -3.50423,-8.13211 -4.16147,-3.14581 -9.79105,-3.30485 -15.72043,-1.94773 -5.9294,1.35714 -12.26098,4.24458 -18.10099,7.48012 -11.68003,6.47109 -21.40267,14.37757 -21.40267,14.37757 a 1.0044843,1.0044843 0 0 0 -0.05,0.0943 l 1.40113,1.40113 c 0.22711,-0.1842 9.67705,-7.8295 21.02533,-14.11677 5.74309,-3.18186 11.95045,-5.98985 17.5766,-7.27757 5.62614,-1.28774 10.56865,-1.04343 14.05573,1.59257 2.19732,1.66102 2.84283,3.73258 2.71347,6.43135 -0.12934,2.69876 -1.15225,5.93487 -2.3833,9.34181 -2.46211,6.81386 -5.85724,14.35571 -3.507,20.70905 2.92517,7.90747 10.30884,13.72521 17.51561,17.58207 8.73208,4.67327 19.14131,6.13829 28.91885,5.80152 5.72335,-0.19712 11.03218,-3.1212 16.15605,-5.53517 5.12384,-2.41397 9.9803,-4.30546 14.80484,-3.02423 2.38075,0.63225 4.72586,2.08756 6.63111,4.00086 1.90499,1.91347 3.36312,4.28184 4.02306,6.66441 1.94676,7.0285 -1.77109,15.22193 -5.58788,21.96311 a 1.0044843,1.0044843 0 0 0 0.21085,1.15976 l 3.17129,-3.17129 c 3.27748,-6.27249 6.05126,-13.5981 4.14236,-20.48985 -0.77009,-2.78025 -2.40839,-5.40676 -4.53358,-7.54115 z" /><path
         id="path41413"
         style="color:#000000;fill:#4f4458;stroke-width:2.00897;stroke-linecap:round;-inkscape-stroke:none"
         d="m 326.70511,300.89273 c -1.348,-1.44191 -2.98792,-2.58986 -4.94142,-3.2989 -3.54993,-1.28849 -6.98816,-0.80461 -10.17139,0.6437 -3.18323,1.4483 -6.17314,3.82345 -9.14483,6.41468 -5.9434,5.18247 -11.85005,11.19564 -18.2092,12.79887 -7.2994,1.8403 -15.70857,3.32914 -22.02137,0.0805 -6.88073,-3.54095 -11.90705,-11.53362 -13.68673,-19.21913 -1.16722,-5.04069 2.24677,-11.59976 5.11901,-17.84295 1.43611,-3.1216 2.71343,-6.16257 3.06029,-9.04217 0.34686,-2.87959 -0.36577,-5.69702 -2.83278,-7.75479 -5.16367,-4.30705 -12.385,-4.69169 -20.10696,-3.01589 -7.72196,1.67579 -16.06058,5.41646 -23.78043,9.647 -15.43974,8.4611 -28.41666,18.92778 -28.41666,18.92778 a 1.0044843,1.0044843 0 0 0 -0.0527,0.097 l 1.40113,1.40113 c 0.23748,-0.19116 12.93584,-10.38892 28.03654,-18.66422 7.62159,-4.17669 15.8321,-7.83696 23.23941,-9.44448 7.40731,-1.6075 13.89416,-1.15775 18.3923,2.59418 1.9567,1.63211 2.4205,3.51981 2.12529,5.97078 -0.29522,2.45097 -1.47858,5.36663 -2.89383,8.44288 -2.8305,6.15247 -6.68124,12.94962 -5.24941,19.13309 1.89602,8.18789 7.11758,16.64183 14.7244,20.55643 7.16035,3.68485 16.04304,1.94446 23.43639,0.0805 7.19939,-1.81509 13.18778,-8.13222 19.036,-13.2317 2.9241,-2.54976 5.8036,-4.8019 8.65929,-6.10118 2.85567,-1.29928 5.62622,-1.68227 8.64818,-0.58542 1.64193,0.59595 3.00021,1.54329 4.15901,2.78284 5.02236,5.3725 5.98701,16.49038 6.54788,24.7543 0.51189,7.54261 -1.78949,15.51295 -5.5546,22.16287 a 1.0044843,1.0044843 0 0 0 0.21085,1.15976 l 3.02146,-3.02146 c 3.03393,-6.3061 4.79826,-13.47393 4.32547,-20.43991 -0.56145,-8.27282 -1.24043,-19.7389 -7.08057,-25.98618 z" /><path
         id="path42145"
         style="color:#000000;fill:#4f4458;stroke-width:2.00897;stroke-linecap:round;-inkscape-stroke:none"
         d="m 225.83008,165.36719 -1.78906,1.79101 c 1.45703,9.82831 2.21177,19.58066 -0.19336,28.84571 -3.04248,11.72015 -10.39513,22.77601 -19.57032,30.74804 -8.47354,7.36242 -19.63014,12.20051 -30.7539,13.97266 -6.94686,1.10673 -14.2367,0.0137 -21.25782,-1.79102 l -1.64257,1.64258 c 7.50404,2.02409 15.46736,3.36347 23.21679,2.12891 11.47733,-1.8285 22.94959,-6.78942 31.75196,-14.4375 9.46667,-8.22531 17.04046,-19.57466 20.20312,-31.75781 2.64261,-10.17979 1.66289,-20.72138 0.0352,-31.14258 z" /><path
         id="path42147"
         style="color:#000000;fill:#4f4458;stroke-width:2.00897;stroke-linecap:round;-inkscape-stroke:none"
         d="m 238.76367,152.43359 -1.59765,1.59766 c 0.16982,0.53856 0.3562,1.07418 0.52343,1.61328 3.98733,12.8536 11.34708,24.88226 11.69727,37.79883 0.42018,15.49852 -1.80208,32.78954 -11.15234,44.81445 -8.33792,10.72296 -22.9068,16.13028 -36.38868,19.5293 -10.83178,2.7309 -22.65289,2.37064 -33.63476,-0.008 -7.41154,-1.60542 -14.60068,-4.50413 -21.35742,-8.1836 0.0571,0.82108 0.18913,1.65075 0.39843,2.49805 6.50218,3.41295 13.40256,6.10498 20.53711,7.65039 11.23177,2.43292 23.34342,2.81747 34.55078,-0.008 13.63512,-3.43767 28.65199,-8.89221 37.48047,-20.2461 9.82472,-12.63511 12.00257,-30.37382 11.57617,-46.10156 -0.36962,-13.63397 -7.90509,-25.82959 -11.7871,-38.34375 -0.27127,-0.87446 -0.56823,-1.73908 -0.84571,-2.61133 z" /><path
         id="path42924"
         style="color:#000000;fill:#4f4458;stroke-width:2.00897;stroke-linecap:round;-inkscape-stroke:none"
         d="m 289.5071,113.20465 a 1.0044843,1.0044843 0 0 0 -0.22197,1.14308 c 0,0 9.32618,17.11721 14.21943,25.58942 5.52391,9.56415 11.06652,19.14514 17.07163,28.45274 8.08922,12.53784 15.34506,26.00185 25.67821,37.07593 8.3508,8.9496 18.22691,16.51785 28.62197,22.90091 9.86302,6.05635 20.76779,10.1051 31.40759,14.28324 3.70107,1.45338 8.82831,3.10188 12.6657,4.30884 a 1.0044843,1.0044843 0 0 0 0.58542,-0.0139 c -0.14999,-0.71516 -0.37834,-1.415 -0.62705,-2.10864 -3.74843,-1.18347 -8.47478,-2.71677 -11.88605,-4.05635 -10.66266,-4.18711 -21.4571,-8.20861 -31.09684,-14.12787 -10.27503,-6.30934 -20.0031,-13.77194 -28.20024,-22.55685 -10.098,-10.8221 -17.31507,-24.16597 -25.46179,-36.79295 -5.96993,-9.25305 -11.49831,-18.80625 -17.02169,-28.36948 -4.09657,-7.09283 -10.35153,-18.52964 -12.5353,-22.52912 z" /><path
         id="path42926"
         style="color:#000000;fill:#4f4458;stroke-width:2.00897;stroke-linecap:round;-inkscape-stroke:none"
         d="m 284.05664,112.93164 c 3.15633,6.7981 7.76585,16.79099 10.86914,24.05859 7.96027,18.64213 12.40773,39.12528 22.78516,56.9336 6.13943,10.53565 13.50554,20.79666 22.95312,28.67383 10.88838,9.07844 24.20093,14.85334 37.20508,20.04882 10.08708,4.03004 20.68787,7.13906 31.49219,8.58594 2.84874,0.38151 6.91242,0.37636 10.41211,0.29102 0.0539,-0.66936 0.0867,-1.33337 0.0566,-2.00391 -3.48215,0.0867 -7.58708,0.075 -10.20313,-0.27539 -10.60028,-1.41959 -21.04638,-4.47874 -31.01367,-8.46094 -12.96547,-5.18001 -26.07143,-10.89634 -36.66211,-19.72656 -9.18224,-7.6559 -16.43095,-17.72686 -22.5039,-28.14844 -10.16433,-17.44262 -14.61211,-37.8312 -22.67383,-56.71093 -3.04093,-7.12155 -7.3223,-16.4077 -10.28516,-22.79102 -0.82158,-0.22734 -1.6307,-0.38901 -2.43164,-0.47461 z" /><path
         id="path42928"
         style="color:#000000;fill:#4f4458;stroke-width:2.00897;stroke-linecap:round;-inkscape-stroke:none"
         d="m 276.57227,114.82227 c -0.26279,0.20646 -0.55882,0.36155 -0.79883,0.60156 l -0.84961,0.84961 c 1.09842,3.36615 2.14578,6.63939 2.91601,9.24218 7.45744,25.20065 9.89154,52.15192 19.92188,76.80469 5.75064,14.13407 11.65196,29.42133 22.9668,40.125 9.4089,8.9007 22.06672,14.34693 34.55468,17.29492 19.53874,4.61246 41.67028,7.75162 60.75391,0.8086 0.63674,-0.75355 1.20149,-1.53696 1.67773,-2.36719 a 1.0044843,1.0044843 0 0 0 -0.83007,-0.0684 c -18.75147,7.44877 -41.1949,4.37846 -61.14063,-0.33008 -12.24381,-2.89038 -24.58141,-8.23632 -33.63281,-16.79882 -10.87171,-10.28449 -16.73107,-25.2708 -22.49024,-39.42579 -9.87967,-24.28246 -12.32175,-51.15692 -19.85547,-76.61523 -0.8706,-2.942 -2.00014,-6.47662 -3.19335,-10.12109 z" /><path
         id="path42930"
         style="color:#000000;fill:#4f4458;stroke-width:2.00897;stroke-linecap:round;-inkscape-stroke:none"
         d="m 269.07812,122.11914 -1.70898,1.70898 c 0.74682,3.65793 1.43341,7.16006 1.91992,10.0879 4.21142,25.34437 7.08914,50.95163 8.50977,76.60156 0.25264,4.56179 -0.63223,9.42994 -1.15625,14.30859 -0.52403,4.87865 -0.68628,9.80614 1.23047,14.4336 6.27666,15.15321 20.02353,27.33006 34.57422,34.60546 12.26473,6.13238 26.84083,6.16132 40.25195,5.78907 18.21858,-0.50568 37.57584,-2.06036 54.20117,-9.95899 l 3.10156,-3.10156 a 1.0044843,1.0044843 0 0 0 -0.98242,-0.19336 c -16.78097,8.98091 -37.10638,10.7093 -56.375,11.24414 -13.36475,0.37095 -27.60532,0.27057 -39.29883,-5.57617 -14.19919,-7.09961 -27.58918,-19.03673 -33.61328,-33.58008 -1.70738,-4.12197 -1.60669,-8.66978 -1.09375,-13.44531 0.51295,-4.77555 1.43903,-9.74072 1.16797,-14.63477 -1.42483,-25.72585 -4.31411,-51.40422 -8.53711,-76.81836 -0.55739,-3.35436 -1.33796,-7.33531 -2.19141,-11.4707 z" /><path
         id="path73559"
         style="fill:none;fill-opacity:1;stroke:#4f4458;stroke-width:6;stroke-linecap:round;stroke-linejoin:round;stroke-dasharray:none;stroke-opacity:1"
         d="M 149.38341,241.81552 275.7742,115.42473 c 4.51745,-4.51745 13.24575,-3.06274 19.57017,3.26168 l 119.86726,119.86726 c 6.32443,6.32443 7.77914,15.05272 3.26169,19.57017 L 292.08253,384.51463 c -4.51745,4.51745 -13.24575,3.06274 -19.57017,-3.26168 L 152.6451,261.38569 c -6.32443,-6.32443 -7.77914,-15.05272 -3.26169,-19.57017 z"
         sodipodi:nodetypes="sssssssss" /></g><g
       id="g5035"
       transform="translate(-72.601895,-0.04958303)"><rect
         style="fill:#c8d853;fill-opacity:1;stroke-width:8.48997;stroke-linecap:round;stroke-linejoin:round"
         id="rect981"
         width="200.92398"
         height="200.89687"
         x="-29.751312"
         y="219.16383"
         ry="16.071749"
         transform="rotate(-45)" /><path
         style="fill:#f7e5b5;fill-opacity:1;stroke:#4f4458;stroke-width:2.51121px;stroke-linecap:butt;stroke-linejoin:round;stroke-opacity:1"
         d="m 230.42712,247.08273 10.30661,-28.31718 28.3172,10.3066 11.1395,57.50194 -18.87814,-6.87107 -6.00352,-12.8746 -18.87813,-6.87108 z"
         id="path23159" /><path
         style="fill:#40b9ad;fill-opacity:1;stroke:#4f4458;stroke-width:2.51121px;stroke-linecap:butt;stroke-linejoin:round;stroke-opacity:1"
         d="m 269.05093,229.07215 -11.13949,-57.50194 -17.17771,47.19534 z"
         id="path23161" /><path
         id="path23889"
         style="fill:#7bd0d1;fill-opacity:1;stroke:none;stroke-width:2.51121px;stroke-linecap:butt;stroke-linejoin:round;stroke-opacity:1"
         d="m 224.33223,87.61222 -33.36363,91.66188 56.63632,20.61194 10.30735,-28.31402 -18.88063,-6.87248 44.66149,-122.70878 -9.43892,-3.43486 -16.30864,15.44298 z" /><path
         style="fill:#fff8df;fill-opacity:1;stroke:#4f4458;stroke-width:2.51121px;stroke-linecap:butt;stroke-linejoin:round;stroke-opacity:1"
         d="m 239.0333,164.69914 -18.87813,-6.87107 24.04877,-66.07347 18.87813,6.871091 z"
         id="path23891" /><path
         style="fill:#40b9ad;fill-opacity:1;stroke:#4f4458;stroke-width:2.51121px;stroke-linecap:butt;stroke-linejoin:round;stroke-opacity:1"
         d="m 263.08207,98.625691 -24.04877,66.073449 18.87814,6.87108 13.74213,-37.75625 9.43908,3.43552 10.30661,-28.31718 z"
         id="path24619" /><path
         style="fill:#f6ce76;fill-opacity:1;stroke:#4f4458;stroke-width:2.51121px;stroke-linecap:butt;stroke-linejoin:round;stroke-opacity:1"
         d="m 263.48118,200.32118 -5.56974,-28.75097 13.74213,-37.75624 9.43908,3.43552 10.30661,-28.31718 14.1586,5.1533 -32.63762,89.67112 z"
         id="path24621" /><path
         style="fill:#e9b462;fill-opacity:1;stroke:#4f4458;stroke-width:2.51121px;stroke-linecap:butt;stroke-linejoin:round;stroke-opacity:1"
         d="m 263.48118,200.32118 5.56975,28.75097 18.87812,6.87109 24.04877,-66.07345 -23.59766,-8.58884 -15.45992,42.47578 z"
         id="path31226" /><path
         id="path31954"
         style="fill:#fff7e3;fill-opacity:1;stroke:#4f4458;stroke-width:2.51121px;stroke-linecap:butt;stroke-linejoin:round;stroke-opacity:1"
         d="m 315.86442,85.7676 -27.48438,75.51367 23.59766,8.58789 26.67578,-73.29101 -3.95508,-3.95508 z" /><path
         id="path32682"
         style="fill:#e9b462;fill-opacity:1;stroke:none;stroke-width:2.51121px;stroke-linecap:butt;stroke-linejoin:round;stroke-opacity:1"
         d="m 283.52848,42.45119 -20.44727,56.175786 28.31641,10.304684 15.9082,-43.70117 -19.93164,-19.93164 c -1.16601,-1.16601 -2.465,-2.11354 -3.8457,-2.84766 z" /><path
         id="path34274"
         style="fill:#40b9ad;fill-opacity:1;stroke:#4f4458;stroke-width:2.51121px;stroke-linecap:butt;stroke-linejoin:round;stroke-opacity:1"
         d="m 307.30582,65.23049 -15.90625,43.70117 14.1582,5.1543 10.30665,-28.31836 5.74023,-6.23828"
         sodipodi:nodetypes="ccccc" /><path
         id="path34345"
         style="fill:#f7e5b5;fill-opacity:1;stroke:#4f4458;stroke-width:2.51121px;stroke-linecap:butt;stroke-linejoin:round;stroke-opacity:1"
         d="m 321.60465,79.52932 -5.74023,6.23828 18.83398,6.85547 m 3.95508,3.95508 -6.0625,16.6582 14.1582,5.15234 3.66016,-10.05468"
         sodipodi:nodetypes="ccccccc" /><path
         style="fill:#7bd0d1;fill-opacity:1;stroke:#4f4458;stroke-width:2.51121px;stroke-linecap:butt;stroke-linejoin:round;stroke-opacity:1"
         d="m 324.00221,136.83305 22.73011,40.3416 -25.76654,70.79297 -33.03673,-12.02438 z"
         id="path34485" /><path
         style="fill:#fff7e3;fill-opacity:1;stroke:#4f4458;stroke-width:2.51121px;stroke-linecap:butt;stroke-linejoin:round;stroke-opacity:1"
         d="m 280.19043,286.57409 14.15859,5.15332 8.58885,-23.59766 9.43907,3.43554 8.58884,-23.59767 -51.91485,-18.89547 z"
         id="path34625" /><path
         id="path34627"
         style="fill:#e9b462;fill-opacity:1;stroke:#4f4458;stroke-width:2.51121px;stroke-linecap:butt;stroke-linejoin:round;stroke-opacity:1"
         d="m 350.40934,108.33401 -3.66016,10.05468 -14.1582,-5.15234 -8.58789,23.59766 22.72851,40.33984 27.88477,26.18359 18.89648,-51.91992 m -25.20117,-25.20117 -12.12305,-4.41211 2.0586,-5.65234"
         sodipodi:nodetypes="cccccccccc" /><path
         id="path34698"
         style="fill:#f7e5b5;fill-opacity:1;stroke:none;stroke-width:2.51121px;stroke-linecap:butt;stroke-linejoin:round;stroke-opacity:1"
         d="m 346.73304,177.1738 -34.35691,94.39201 8.88125,3.23231 43.01064,-43.01064 10.3462,-28.43052 z" /><path
         id="path36255"
         style="fill:#c1d2ab;fill-opacity:1;stroke:none;stroke-width:2.51121;stroke-linecap:butt;stroke-linejoin:round;stroke-dasharray:none;stroke-opacity:1"
         d="m 271.40738,41.25393 c -0.37245,0.1115 -0.73823,0.24752 -1.10351,0.38672 l -12.35742,12.35742 z m -47.07421,46.35742 -29.36133,29.36133 12.48828,16.99414 z" /><path
         id="path42997"
         style="color:#000000;fill:#4f4458;stroke-width:2.00897;stroke-linecap:round;stroke-linejoin:round;-inkscape-stroke:none"
         d="m 276.16715,40.58596 7.0957,2.58398 a 1.2557309,1.2557309 0 0 0 1.11719,-0.21289 c -2.5193,-1.54614 -5.36011,-2.343 -8.21289,-2.37109 z m -2.41211,0.16797 c -1.17338,0.16637 -2.32992,0.45946 -3.45117,0.88672 l -13.23828,13.23828 a 1.2556054,1.2556054 0 0 0 1.74218,0.0332 z m -48.54687,45.98242 -2.97657,2.97656 -15.14843,41.62305 -11.10157,-15.10742 a 1.2556054,1.2556054 0 0 0 -0.13281,-0.13281 l -1.77344,1.77343 12.375,16.83985 a 1.2557309,1.2557309 0 0 0 2.18946,-0.3125 L 225.5109,88.04299 a 1.2556054,1.2556054 0 0 0 -0.30273,-1.30664 z" /><path
         id="path42999"
         style="color:#000000;fill:#4f4458;stroke-width:2.00897;stroke-linecap:round;stroke-linejoin:round;-inkscape-stroke:none"
         d="m 222.23191,89.71254 -32.44248,89.13151 a 1.2557309,1.2557309 0 0 0 0.74912,1.60923 l 56.63632,20.61192 a 1.2557309,1.2557309 0 0 0 1.60922,-0.74912 l 10.30736,-28.314 a 1.2557309,1.2557309 0 0 0 -0.74913,-1.60921 L 240.64087,163.95042 284.8723,42.42081 a 1.2557309,1.2557309 0 0 0 -0.74911,-1.60923 l -9.43894,-3.43485 a 1.2557309,1.2557309 0 0 0 -0.14705,0.0305 l -17.47115,17.47115 a 1.2556054,1.2556054 0 0 0 1.7424,0.0333 l 15.7454,-14.91306 7.53006,2.74122 -44.23144,121.52962 a 1.2557309,1.2557309 0 0 0 0.74913,1.60921 l 17.70145,6.44245 -9.44725,25.95566 -54.27798,-19.75183 32.93358,-90.48271 a 1.2556054,1.2556054 0 0 0 -0.30243,-1.30679 z" /><path
         id="path43001"
         style="color:#000000;fill:#4f4458;stroke-width:2.00897;stroke-linecap:round;stroke-linejoin:round;-inkscape-stroke:none"
         d="m 346.06437,176.11116 a 1.2557309,1.2557309 0 0 0 -0.51052,0.63257 l -34.35691,94.39201 a 1.2557309,1.2557309 0 0 0 0.74913,1.60921 l 8.33188,3.03256 1.86171,-1.86171 a 1.2556054,1.2556054 0 0 0 -0.45227,-0.29685 l -7.70208,-2.80227 33.27485,-91.42327 25.89184,24.31036 -10.06318,27.65365 a 1.2556054,1.2556054 0 0 0 0.35791,1.25131 l 2.92157,-2.92157 9.42506,-25.90017 a 1.2557309,1.2557309 0 0 0 -0.31907,-1.34564 l -27.88118,-26.18316 a 1.2557309,1.2557309 0 0 0 -1.52876,-0.14705 z" /><path
         id="path34801"
         style="fill:#c1d2ab;fill-opacity:1;stroke:none;stroke-width:2.51121;stroke-linecap:butt;stroke-linejoin:round;stroke-dasharray:none;stroke-opacity:1"
         d="m 146.95913,164.98532 c -6.2959,6.2959 -6.29589,16.43299 0,22.72889 l 108.38393,108.38392 5.96799,-16.39464 -6.00128,-12.87657 -18.87786,-6.86971 -6.00406,-12.87378 17.17707,-47.19739 -56.63632,-20.61194 16.49176,-45.30794 -12.48812,-16.99394 z" /><path
         id="path43003"
         style="color:#000000;fill:#4f4458;stroke-width:2.00897;stroke-linecap:round;stroke-linejoin:round;-inkscape-stroke:none"
         d="m 194.07607,117.86838 11.97483,16.29755 -16.26147,44.67812 a 1.2557309,1.2557309 0 0 0 0.74912,1.60923 l 55.45715,20.18187 -16.74702,46.01822 a 1.2557309,1.2557309 0 0 0 0.0416,0.96277 l 6.00406,12.87378 a 1.2557309,1.2557309 0 0 0 0.70752,0.64644 l 18.38953,6.69217 5.56292,11.9332 -5.59068,15.357 1.80067,1.80067 a 1.2556054,1.2556054 0 0 0 0.35794,-0.39118 l 5.968,-16.39466 a 1.2557309,1.2557309 0 0 0 -0.0389,-0.95997 l -6.00128,-12.87657 a 1.2557309,1.2557309 0 0 0 -0.71029,-0.64921 l -18.38947,-6.69215 -5.56568,-11.93045 16.9995,-46.70908 a 1.2557309,1.2557309 0 0 0 -0.74913,-1.60922 l -55.45713,-20.1819 16.0617,-44.12876 a 1.2557309,1.2557309 0 0 0 -0.16924,-1.17363 L 195.9822,116.22867 a 1.2556054,1.2556054 0 0 0 -0.13317,-0.13317 z" /><path
         id="path43106"
         style="color:#000000;fill:#4f4458;stroke-width:2.00897;stroke-linecap:round;stroke-linejoin:round;-inkscape-stroke:none"
         d="m 282.38785,41.91408 -20.48632,56.283208 a 1.2557309,1.2557309 0 0 0 0.75,1.609375 l 28.3164,10.304687 a 1.2557309,1.2557309 0 0 0 1.60938,-0.75 l 15.70703,-43.15234 -1.95899,-1.95899 -15.67578,43.07227 -25.95898,-9.443361 19.9375,-54.775389 c -0.72089,-0.46051 -1.47077,-0.8554 -2.24024,-1.18946 z" /><rect
         style="fill:none;fill-opacity:1;stroke:#4f4458;stroke-width:6;stroke-linecap:round;stroke-linejoin:round;stroke-dasharray:none;stroke-opacity:1"
         id="rect73534"
         width="201.80725"
         height="201.80725"
         x="-30.192947"
         y="218.70863"
         ry="16.144579"
         transform="rotate(-45)" /><path
         style="fill:none;stroke:#4f4458;stroke-width:3.02745;stroke-linecap:round;stroke-linejoin:miter;stroke-dasharray:none;stroke-opacity:1"
         d="m 193.00684,198.85902 h 36.32937"
         id="path36308" /><path
         style="fill:none;stroke:#4f4458;stroke-width:3.02745;stroke-linecap:round;stroke-linejoin:miter;stroke-dasharray:none;stroke-opacity:1"
         d="m 193.00684,207.94136 h 36.32937"
         id="path36310" /><path
         style="fill:none;stroke:#4f4458;stroke-width:3.02745;stroke-linecap:round;stroke-linejoin:miter;stroke-dasharray:none;stroke-opacity:1"
         d="m 193.00684,217.0237 h 36.32937"
         id="path36312" /><path
         style="fill:none;stroke:#4f4458;stroke-width:3.02745;stroke-linecap:round;stroke-linejoin:miter;stroke-dasharray:none;stroke-opacity:1"
         d="m 193.00684,226.10605 h 36.32937"
         id="path36314" /></g><g
       aria-label="L"
       id="text377"
       style="font-size:85.3333px;line-height:1.25;fill:#4f4458"><path
         d="m 404.60656,117.686 q -1.19467,0 -1.96267,-0.68267 -0.68266,-0.768 -0.68266,-2.048 V 59.830021 q 0,-1.365333 0.68266,-2.047999 0.68267,-0.682666 1.87734,-0.682666 1.28,0 1.96266,0.682666 0.68267,0.682666 0.68267,2.047999 v 53.162649 h 29.35465 q 1.28,0 1.87734,0.59733 0.68266,0.59733 0.68266,1.70666 0,1.19467 -0.68266,1.792 -0.59734,0.59734 -1.87734,0.59734 z"
         style="font-weight:300;font-family:Nunito;-inkscape-font-specification:'Nunito Light'"
         id="path513" /></g><g
       aria-label="A"
       id="text377-1"
       style="font-size:85.3333px;line-height:1.25;fill:#4f4458"><path
         d="m 395.42714,200.4201 q -1.10933,0 -1.792,-0.512 -0.59733,-0.42667 -0.68267,-1.28 0,-0.85334 0.42667,-1.87734 l 23.97866,-55.12531 q 0.59733,-1.28 1.45066,-1.792 0.85334,-0.59733 1.70667,-0.59733 1.024,0 1.792,0.59733 0.85333,0.512 1.36533,1.792 l 23.97866,55.12531 q 0.512,1.024 0.42666,1.87734 0,0.85333 -0.59733,1.28 -0.512,0.512 -1.62133,0.512 -1.19467,0 -1.96267,-0.59734 -0.68266,-0.68266 -1.19466,-1.792 l -6.57067,-15.44532 2.816,1.28 H 401.9978 l 2.90134,-1.28 -6.57067,15.44532 q -0.512,1.28 -1.28,1.87734 -0.68266,0.512 -1.62133,0.512 z m 25.00266,-54.18665 -14.50667,34.13332 -1.96266,-1.024 h 33.02399 l -1.792,1.024 -14.592,-34.13332 z"
         style="font-weight:300;font-family:Nunito;-inkscape-font-specification:'Nunito Light'"
         id="path510" /></g><g
       aria-label="M"
       id="text377-1-2"
       style="font-size:85.3333px;line-height:1.25;fill:#4f4458"><path
         d="m 394.66524,282.85551 q -1.10933,0 -1.792,-0.68267 -0.59733,-0.68267 -0.59733,-1.87733 v -56.06398 q 0,-1.28 0.59733,-1.87733 0.68267,-0.68267 1.70667,-0.68267 1.10933,0 1.70666,0.42667 0.59734,0.42666 1.10934,1.36533 l 24.40532,46.33598 h -2.38933 l 24.23465,-46.33598 q 0.59734,-0.93867 1.10934,-1.36533 0.59733,-0.42667 1.70666,-0.42667 1.024,0 1.62133,0.68267 0.68267,0.59733 0.68267,1.87733 v 56.06398 q 0,1.19466 -0.59733,1.87733 -0.59734,0.68267 -1.792,0.68267 -1.19467,0 -1.87733,-0.68267 -0.59734,-0.68267 -0.59734,-1.87733 v -51.79732 h 2.048 l -22.86932,43.34932 q -0.42667,0.85333 -0.93867,1.28 -0.512,0.42667 -1.45066,0.42667 -1.024,0 -1.62134,-0.42667 -0.512,-0.512 -0.93866,-1.28 l -23.12533,-43.43465 h 2.048 v 51.88265 q 0,1.19466 -0.59733,1.87733 -0.59733,0.68267 -1.792,0.68267 z"
         style="font-weight:300;font-family:Nunito;-inkscape-font-specification:'Nunito Light'"
         id="path507" /></g><g
       aria-label="P"
       id="text377-1-2-6"
       style="font-size:85.3333px;line-height:1.25;fill:#4f4458"><path
         d="m 401.83324,365.03492 q -1.19467,0 -1.87733,-0.68267 -0.68267,-0.768 -0.68267,-2.048 v -55.21064 q 0,-1.36533 0.68267,-2.048 0.768,-0.68267 1.96266,-0.68267 h 20.05333 q 9.55733,0 14.67732,4.608 5.12,4.608 5.12,13.14133 0,8.448 -5.12,13.14133 -5.11999,4.608 -14.67732,4.608 h -17.49333 v 22.44265 q 0,1.28 -0.68266,2.048 -0.59734,0.68267 -1.96267,0.68267 z m 2.64533,-29.78132 h 17.06666 q 7.424,0 11.17866,-3.328 3.75467,-3.328 3.75467,-9.81333 0,-6.48533 -3.75467,-9.81333 -3.75466,-3.41333 -11.17866,-3.41333 h -17.06666 z"
         style="font-weight:300;font-family:Nunito;-inkscape-font-specification:'Nunito Light'"
         id="path504" /></g><g
       aria-label="A"
       id="text377-1-2-6-7"
       style="font-size:85.3333px;line-height:1.25;fill:#4f4458"><path
         d="m 395.42714,447.72636 q -1.10933,0 -1.792,-0.512 -0.59733,-0.42667 -0.68267,-1.28 0,-0.85334 0.42667,-1.87734 l 23.97866,-55.12531 q 0.59733,-1.28 1.45066,-1.792 0.85334,-0.59733 1.70667,-0.59733 1.024,0 1.792,0.59733 0.85333,0.512 1.36533,1.792 l 23.97866,55.12531 q 0.512,1.024 0.42666,1.87734 0,0.85333 -0.59733,1.28 -0.512,0.512 -1.62133,0.512 -1.19467,0 -1.96267,-0.59734 -0.68266,-0.68266 -1.19466,-1.792 l -6.57067,-15.44532 2.816,1.28 H 401.9978 l 2.90134,-1.28 -6.57067,15.44532 q -0.512,1.28 -1.28,1.87734 -0.68266,0.512 -1.62133,0.512 z m 25.00266,-54.18665 -14.50667,34.13332 -1.96266,-1.024 h 33.02399 l -1.792,1.024 -14.592,-34.13332 z"
         style="font-weight:300;font-family:Nunito;-inkscape-font-specification:'Nunito Light'"
         id="path501" /></g></g></svg>
